<svg width="24" height="24" viewBox="0 0 24 24" fill="none" xmlns="http://www.w3.org/2000/svg">
<path d="M20.4853 3.51469C18.2188 1.24823 15.2054 0 12 0C8.79469 0 5.78123 1.24823 3.51473 3.51469C1.24823 5.78119 0 8.79464 0 12C0 15.2054 1.24819 18.2188 3.51473 20.4853C5.78123 22.7518 8.79469 24 12 24C15.2054 24 18.2188 22.7518 20.4853 20.4853C22.7518 18.2188 24 15.2054 24 12C24 8.79464 22.7518 5.78119 20.4853 3.51469ZM12.7532 17.2219H12.7031V18.7782C12.7031 19.1665 12.3884 19.4813 12 19.4813C11.6117 19.4813 11.2969 19.1665 11.2969 18.7782V17.2219H9.74067C9.35241 17.2219 9.03755 16.9071 9.03755 16.5187C9.03755 16.1304 9.35241 15.8156 9.74067 15.8156H12.7532C13.6113 15.8156 14.3094 15.1175 14.3094 14.2594C14.3094 13.4013 13.6113 12.7031 12.7532 12.7031H11.2469C9.61336 12.7031 8.28441 11.3742 8.28441 9.74067C8.28441 8.10712 9.61341 6.77817 11.2469 6.77817H11.2969V5.22192C11.2969 4.83361 11.6117 4.5188 12 4.5188C12.3884 4.5188 12.7031 4.83361 12.7031 5.22192V6.77817H14.2594C14.6477 6.77817 14.9625 7.09298 14.9625 7.4813C14.9625 7.86961 14.6477 8.18442 14.2594 8.18442H11.2469C10.3887 8.18442 9.69066 8.88253 9.69066 9.74067C9.69066 10.5988 10.3888 11.2969 11.2469 11.2969H12.7532C14.3867 11.2969 15.7156 12.6259 15.7156 14.2594C15.7156 15.8929 14.3867 17.2219 12.7532 17.2219Z" fill="#12D3CE"/>
</svg>
