<svg width="24" height="24" viewBox="0 0 24 24" fill="none" xmlns="http://www.w3.org/2000/svg">
<path d="M23.3409 12.9644H15.0231C14.6596 12.9644 14.3633 13.2607 14.3633 13.6241C14.3633 13.8092 14.442 13.976 14.5646 14.0963L20.4216 19.9533C20.5419 20.083 20.7157 20.1641 20.9056 20.1641C21.1347 20.1641 21.3361 20.0483 21.4542 19.8723C22.8941 18.2008 23.8202 16.078 23.9869 13.7421C23.9962 13.7028 24.0008 13.6635 24.0008 13.624C24.0008 13.2607 23.7067 12.9644 23.3409 12.9644Z" fill="#12D3CE"/>
<path d="M12.511 1.00684C12.1475 1.00906 11.8535 1.30316 11.8535 1.6666V10.9105C11.8535 11.2763 12.1475 11.5726 12.511 11.5726H21.7572C22.1208 11.5726 22.417 11.2763 22.417 10.9105C22.0905 5.59067 17.8332 1.33331 12.511 1.00684Z" fill="#12D3CE"/>
<path d="M17.5919 19.4139L10.7719 12.5938C10.6562 12.4758 10.5868 12.3114 10.5868 12.1331L10.5843 2.50024C10.5843 2.1368 10.2904 1.84277 9.92684 1.84277C4.387 2.1808 0 6.78301 0 12.4063C0 18.2518 4.73896 22.993 10.5843 22.993C13.2512 22.993 15.6866 22.0068 17.5479 20.3792C17.6915 20.2588 17.7818 20.0783 17.7818 19.8769C17.7818 19.6986 17.7099 19.5342 17.5919 19.4139Z" fill="#12D3CE"/>
</svg>
