<svg width="52" height="52" viewBox="0 0 52 52" fill="none" xmlns="http://www.w3.org/2000/svg">
<g clip-path="url(#clip0)">
<path d="M25.9997 0C20.3966 0 15.8394 4.55849 15.8394 10.1615V15.426C15.8394 21.0295 20.3966 25.588 25.9997 25.588C31.6031 25.588 36.1599 21.0295 36.1599 15.426V10.1615C36.1601 4.55849 31.6031 0 25.9997 0Z" fill="#A2EEEC"/>
<path d="M48.407 38.8297C45.1535 33.2853 39.9531 29.1748 33.7639 27.2554C33.6204 27.2109 33.4652 27.2487 33.3583 27.3544C30.4792 30.1932 26.9016 32.4079 26.0072 32.9429C25.0525 32.3326 21.031 29.7114 18.6403 27.3544C18.5338 27.2487 18.3774 27.2109 18.2347 27.2554C12.0447 29.1752 6.84473 33.2857 3.59247 38.8301C3.51801 38.957 3.51801 39.1146 3.59247 39.2415C8.21086 47.1113 16.7966 52.0001 25.9993 52.0001C35.2024 52.0001 43.7886 47.1113 48.407 39.2415C48.4818 39.1142 48.4818 38.9566 48.407 38.8297ZM39.8183 41.8606C39.8183 42.0848 39.6049 42.2562 39.3811 42.2562H36.6293C36.405 42.2562 36.1604 42.4488 36.1604 42.6735V45.5193C36.1604 45.7431 36.0406 45.9141 35.8164 45.9141H33.345C33.1207 45.9141 32.9094 45.7431 32.9094 45.5193V42.6735C32.9086 42.4493 32.7555 42.2562 32.5313 42.2562H29.6609C29.4367 42.2562 29.2511 42.0844 29.2511 41.8606V39.4104C29.2511 39.1862 29.4367 39.0052 29.6609 39.0052H32.5313C32.7555 39.0052 32.9086 38.8222 32.9086 38.5975V35.7484C32.9086 35.5242 33.1199 35.3474 33.3441 35.3474H35.7889C36.0128 35.3474 36.16 35.5242 36.16 35.7484V38.6059C36.16 38.8305 36.3772 39.0048 36.6018 39.0048H39.3811C39.6049 39.0048 39.8183 39.1945 39.8183 39.4187V41.8606Z" fill="#A481DE"/>
</g>
<defs>
<clipPath id="clip0">
<rect width="52" height="52" fill="white"/>
</clipPath>
</defs>
</svg>
