<svg width="42" height="42" viewBox="0 0 42 42" fill="none" xmlns="http://www.w3.org/2000/svg">
<path d="M34.1765 12.0343H19.0235L16.0094 8.4519C15.908 8.33002 15.7561 8.26167 15.5976 8.26661H3.37235C1.50582 8.2802 0 9.79714 0 11.6637V33.6972C0.00226471 35.5701 1.52003 37.0879 3.39294 37.0901H34.1765C36.0494 37.0879 37.5671 35.5701 37.5694 33.6972V15.4272C37.5671 13.5543 36.0494 12.0365 34.1765 12.0343Z" fill="#A481DE"/>
<path d="M38.6268 7.64485H23.4697L20.4556 4.0625C20.3542 3.94062 20.2023 3.87226 20.0439 3.8772H7.82268C6.12909 3.87998 4.69697 5.13113 4.4668 6.80897H15.6133C16.1978 6.80753 16.7527 7.0655 17.1286 7.51309L19.7021 10.5725H34.1756C36.8526 10.577 39.0217 12.7461 39.0262 15.4231V32.6678C40.7235 32.456 41.9978 31.0141 41.9991 29.3037V11.0337C41.9947 9.17034 40.49 7.65844 38.6268 7.64485Z" fill="#A481DE"/>
</svg>
