<svg width="52" height="52" viewBox="0 0 52 52" fill="none" xmlns="http://www.w3.org/2000/svg">
<path d="M42.3137 14.8994H23.5529L19.8212 10.4641C19.6956 10.3132 19.5075 10.2286 19.3114 10.2347H4.17529C1.86435 10.2515 0 12.1296 0 14.4406V41.7202C0.00280392 44.039 1.88194 45.9182 4.20078 45.921H42.3137C44.6326 45.9182 46.5117 44.039 46.5145 41.7202V19.1002C46.5117 16.7813 44.6326 14.9022 42.3137 14.8994Z" fill="#A2EEEC"/>
<path d="M47.8246 9.46507H29.0587L25.3269 5.02977C25.2014 4.87887 25.0133 4.79424 24.8171 4.80036H9.68615C7.58933 4.8038 5.81623 6.35284 5.53125 8.43016H19.3316C20.0553 8.42838 20.7424 8.74777 21.2077 9.30193L24.394 13.0898H42.3136C45.628 13.0954 48.3135 15.7809 48.3191 19.0953V40.4459C50.4205 40.1837 51.9982 38.3985 51.9999 36.2808V13.6608C51.9944 11.3538 50.1314 9.48189 47.8246 9.46507Z" fill="#A481DE"/>
</svg>
