<svg width="42" height="42" viewBox="0 0 42 42" fill="none" xmlns="http://www.w3.org/2000/svg">
<g clip-path="url(#clip0)">
<path d="M29.5608 7.93924L22.0607 0.439215C21.475 -0.146405 20.5254 -0.146405 19.9397 0.439215L12.4396 7.93924C11.8641 8.53515 11.8806 9.48472 12.4765 10.0602C13.0578 10.6217 13.9794 10.6217 14.5607 10.0602L19.5003 5.12066V13.4997H22.5003V5.12074L27.4399 10.0603C28.0358 10.6358 28.9853 10.6193 29.5608 10.0234C30.1222 9.44209 30.1222 8.52056 29.5608 7.93924Z" fill="#A481DE"/>
<path d="M36.0003 13.4995H22.5002V29.9997C22.5002 30.8282 21.8286 31.4998 21.0002 31.4998C20.1717 31.4998 19.5001 30.8282 19.5001 29.9997V13.4995H6.00003C3.51473 13.4995 1.5 15.5142 1.5 17.9996V37.4997C1.5 39.985 3.51473 41.9998 6.00003 41.9998H36.0002C38.4855 41.9998 40.5003 39.985 40.5003 37.4997V17.9996C40.5004 15.5142 38.4856 13.4995 36.0003 13.4995Z" fill="#A481DE"/>
</g>
<defs>
<clipPath id="clip0">
<rect width="42" height="42" fill="white"/>
</clipPath>
</defs>
</svg>
