<svg width="18" height="18" viewBox="0 0 18 18" fill="none" xmlns="http://www.w3.org/2000/svg">
<path d="M2.19422 0.995239C2.75469 0.995239 3.19354 1.17193 3.5124 1.52366C3.83126 1.87539 4.00219 2.31917 4.0252 2.85088C4.0252 3.37601 3.84605 3.81896 3.48528 4.17891C3.1245 4.53804 2.63142 4.71802 2.00767 4.71802H1.98548C1.37652 4.71802 0.894124 4.53804 0.534995 4.17891C0.179975 3.81896 0 3.37601 0 2.85088C0 2.31095 0.19559 1.86717 0.590056 1.51791C0.984523 1.16946 1.52034 0.995239 2.19422 0.995239ZM0.235858 6.19234H4.08437V17.004H0.235858V6.19234ZM18 10.8051V17.004H14.1523V11.2218C14.1523 10.4863 14.0011 9.89703 13.7003 9.44833C13.4012 9.00373 12.9007 8.78102 12.1939 8.78102C11.6557 8.78102 11.2234 8.91744 10.9012 9.19193C10.5783 9.46477 10.3441 9.76637 10.2027 10.0976C10.1567 10.2175 10.1279 10.3498 10.1123 10.497C10.0975 10.6416 10.0909 10.7986 10.0909 10.9637V17.0048H6.21942C6.23586 15.1755 6.2449 13.4974 6.2449 11.9754V10.0532V8.30684C6.2449 7.77513 6.23915 7.3215 6.23011 6.94511C6.22517 6.57201 6.21942 6.31972 6.21942 6.19234H10.0909V7.72336L10.0696 7.76774H10.0909V7.72336C10.2109 7.53517 10.3646 7.33875 10.552 7.13248C10.7418 6.92703 10.9686 6.73473 11.2448 6.55722C11.5184 6.38135 11.848 6.23671 12.2342 6.1192C12.6229 6.00332 13.0651 5.94579 13.5688 5.94579C14.195 5.94579 14.7802 6.04112 15.3258 6.2326C15.8699 6.42409 16.3375 6.72404 16.7352 7.1333C17.1305 7.5401 17.4404 8.04633 17.6655 8.65118C17.8899 9.25438 18 9.97264 18 10.8051Z" fill="white"/>
</svg>
