<svg width="90" height="45" viewBox="0 0 90 45" fill="none" xmlns="http://www.w3.org/2000/svg">
<g clip-path="url(#clip0)">
<path d="M2.32982 36.2365V39.9455C2.32982 40.0862 2.20537 40.2107 2.0646 40.2107H0.265216C0.106086 40.2107 0 40.0862 0 39.9455V32.3889C0 32.2297 0.106086 32.1236 0.265216 32.1236H1.99524C2.13601 32.1236 2.26046 32.2297 2.26046 32.3889V32.8662H2.3135C2.79089 32.3011 3.47841 31.9666 4.29038 31.9666C5.03298 31.9666 5.73886 32.1787 6.26726 32.6378C6.3917 32.7438 6.42639 32.8846 6.35498 33.0091L5.70214 34.4045C5.63074 34.5453 5.45529 34.5636 5.29616 34.4759C4.85549 34.2107 4.43115 34.0169 3.86603 34.0169C2.66644 34.0108 2.32982 35.1247 2.32982 36.2365Z" fill="#64ECEC"/>
<path d="M13.5609 37.9851C13.7547 37.879 13.8955 37.9137 13.9669 38.0565L14.585 39.203C14.6381 39.3275 14.585 39.4683 14.4606 39.556C13.8077 40.015 12.6061 40.3863 11.4228 40.3863C10.0641 40.3863 8.96856 39.962 8.20964 39.203C7.45071 38.4625 7.02637 37.3669 7.02637 36.0776C7.02637 34.8596 7.4854 33.8355 8.20964 33.0929C8.8992 32.387 9.90498 31.9626 11.176 31.9626C12.6408 31.9626 13.6649 32.5094 14.3014 33.3744C14.8849 34.168 15.0604 35.3697 15.044 36.606C15.044 36.7651 14.938 36.8712 14.7788 36.8712H9.49899C9.58672 37.3302 9.74585 37.6648 10.0294 37.9484C10.3824 38.3197 10.9475 38.5318 11.6003 38.5318C12.3776 38.5318 12.9774 38.3197 13.5609 37.9851ZM12.7836 35.335C12.7652 34.9106 12.6428 34.576 12.396 34.2761C12.1308 33.9946 11.7064 33.7988 11.1943 33.7988C10.6639 33.7988 10.1886 33.9762 9.92334 34.2761C9.67649 34.5577 9.53572 34.929 9.48267 35.335H12.7836Z" fill="#64ECEC"/>
<path d="M19.1059 32.9337C19.7955 32.2279 20.6605 31.9626 21.5255 31.9626C22.4252 31.9626 23.2739 32.1911 23.892 32.7563C24.4571 33.2683 24.8284 34.0987 24.8284 35.2982V39.9416C24.8284 40.0823 24.7224 40.2068 24.5632 40.2068H22.7455C22.6047 40.2068 22.4803 40.0823 22.4803 39.9416V35.898C22.4803 35.3146 22.4089 34.7331 22.0743 34.3618C21.8621 34.115 21.5092 33.9558 21.0154 33.9558C19.6384 33.9558 19.1263 35.2452 19.1263 36.4101V39.9416C19.1263 40.0823 19.0018 40.2068 18.8611 40.2068H17.0597C16.9005 40.2068 16.7944 40.0823 16.7944 39.9416V32.385C16.7944 32.2258 16.9005 32.1197 17.0597 32.1197H18.7897C18.9304 32.1197 19.0549 32.2258 19.0549 32.385V32.9317H19.1059V32.9337Z" fill="#64ECEC"/>
<path d="M29.5756 37.0302C29.5756 37.4178 29.6286 37.7197 29.7531 37.9482C29.8938 38.2298 30.1591 38.3726 30.565 38.3726C30.8996 38.3726 31.2893 38.2665 31.7136 37.9319C31.8728 37.8075 32.0319 37.8258 32.0849 37.9666L32.7031 39.2723C32.7745 39.3967 32.7215 39.5375 32.597 39.6252C31.9442 40.0842 30.9894 40.3841 29.9489 40.3841C28.9431 40.3841 28.2883 40.0842 27.8823 39.6069C27.4049 39.0071 27.2458 38.1767 27.2458 37.3464V33.9557H26.3624C26.2216 33.9557 26.0972 33.8313 26.0972 33.6742V32.3848C26.0972 32.2257 26.2216 32.1196 26.3624 32.1196H27.2458V30.5304C27.2458 30.3712 27.3702 30.2651 27.511 30.2651H29.3124C29.4715 30.2651 29.5776 30.3712 29.5776 30.5304V32.1196H31.8034C31.9625 32.1196 32.0686 32.2257 32.0686 32.3848V33.6742C32.0686 33.8333 31.9625 33.9557 31.8034 33.9557H29.5776V37.0302H29.5756Z" fill="#64ECEC"/>
<path d="M38.7744 42.0448C39.0743 41.7266 39.2334 41.2676 39.2334 40.6861V39.8925C38.6683 40.2108 38.0685 40.3515 37.2729 40.3515C36.161 40.3515 35.2593 39.9639 34.6064 39.3274C33.8291 38.5685 33.4048 37.4199 33.4048 36.1489C33.4048 35.0187 33.7761 33.8721 34.5167 33.0765C35.1532 32.4053 36.0529 31.9646 37.2545 31.9646C38.1379 31.9646 38.8091 32.3175 39.2497 32.6174H39.3028V32.3889C39.3028 32.2298 39.4272 32.1237 39.568 32.1237H41.298C41.4388 32.1237 41.5632 32.2298 41.5632 32.3889V40.3883C41.5632 41.7654 41.1756 42.8609 40.3616 43.5484C39.6374 44.1482 38.6479 44.4134 37.4136 44.4134C36.1957 44.4134 35.0124 44.0605 34.2535 43.5301C34.129 43.424 34.076 43.2995 34.129 43.1771L34.8186 41.8347C34.89 41.7103 35.0491 41.6409 35.2246 41.7633C35.8081 42.1509 36.5303 42.4692 37.4504 42.4692C38.0338 42.4692 38.4745 42.3284 38.7744 42.0448ZM39.2334 37.9136V34.576C38.9152 34.3454 38.35 33.9578 37.6095 33.9578C37.0444 33.9578 36.62 34.1516 36.3385 34.4699C35.9672 34.9105 35.7917 35.5124 35.7917 36.1836C35.7917 36.9241 35.9692 37.526 36.3222 37.9136C36.6221 38.2319 37.0117 38.4257 37.5585 38.4257C38.246 38.4257 38.7927 38.2135 39.2334 37.9136Z" fill="#64ECEC"/>
<path d="M49.8993 37.9851C50.0931 37.879 50.2338 37.9137 50.3052 38.0565L50.9234 39.203C50.9764 39.3275 50.9234 39.4683 50.799 39.556C50.1461 40.015 48.9445 40.3863 47.7612 40.3863C46.4025 40.3863 45.3069 39.962 44.548 39.203C43.7891 38.4625 43.3647 37.3669 43.3647 36.0776C43.3647 34.8596 43.8238 33.8355 44.548 33.0929C45.2376 32.387 46.2434 31.9626 47.5144 31.9626C48.9792 31.9626 50.0033 32.5094 50.6398 33.3744C51.2233 34.168 51.3988 35.3697 51.3824 36.606C51.3824 36.7651 51.2763 36.8712 51.1172 36.8712H45.8374C45.9251 37.3302 46.0842 37.6648 46.3678 37.9484C46.7207 38.3197 47.2859 38.5318 47.9387 38.5318C48.716 38.5318 49.3178 38.3197 49.8993 37.9851ZM49.122 35.335C49.1036 34.9106 48.9812 34.576 48.7344 34.2761C48.4691 33.9946 48.0448 33.7988 47.5327 33.7988C47.0023 33.7988 46.5269 33.9762 46.2617 34.2761C46.0149 34.5577 45.8741 34.929 45.8211 35.335H49.122Z" fill="#64ECEC"/>
<path d="M55.4443 32.9337C56.1338 32.2279 56.9988 31.9626 57.8639 31.9626C58.7636 31.9626 59.6122 32.1911 60.2304 32.7563C60.7955 33.2683 61.1668 34.0987 61.1668 35.2982V39.9416C61.1668 40.0823 61.0607 40.2068 60.9016 40.2068H59.0838C58.9431 40.2068 58.8186 40.0823 58.8186 39.9416V35.898C58.8186 35.3146 58.7472 34.7331 58.4127 34.3618C58.2005 34.115 57.8475 33.9558 57.3538 33.9558C55.9767 33.9558 55.4647 35.2452 55.4647 36.4101V39.9416C55.4647 40.0823 55.3402 40.2068 55.1995 40.2068H53.398C53.2389 40.2068 53.1328 40.0823 53.1328 39.9416V32.385C53.1328 32.2258 53.2389 32.1197 53.398 32.1197H55.1281C55.2688 32.1197 55.3933 32.2258 55.3933 32.385V32.9317H55.4443V32.9337Z" fill="#64ECEC"/>
<path d="M64.3779 40.3863C63.6006 40.3863 62.9824 39.7682 62.9824 38.9909C62.9824 38.1973 63.6006 37.5791 64.3779 37.5791C65.1552 37.5791 65.7733 38.1973 65.7733 38.9909C65.7733 39.7682 65.1552 40.3863 64.3779 40.3863Z" fill="url(#paint0_linear)"/>
<path d="M70.0475 32.6868C70.5779 32.2278 71.2654 31.981 72.0427 31.981C73.0322 31.981 73.9502 32.3155 74.5684 33.1459C75.1865 32.3869 76.1046 31.981 77.1818 31.981C78.0468 31.981 78.8588 32.2095 79.4586 32.7746C80.0053 33.2683 80.3419 34.0802 80.3419 35.2472V39.9436C80.3419 40.0843 80.2175 40.2088 80.0767 40.2088H78.2753C78.1162 40.2088 78.0101 40.0843 78.0101 39.9436V35.8286C78.0101 35.2819 77.9223 34.7331 77.6571 34.3801C77.4633 34.1333 77.1451 33.9395 76.633 33.9395C76.1026 33.9395 75.7333 34.2047 75.5211 34.576C75.2743 35.0003 75.2029 35.6001 75.2029 36.2877V39.9436C75.2029 40.0843 75.0784 40.2088 74.9377 40.2088H73.1362C72.9771 40.2088 72.871 40.0843 72.871 39.9436V35.8286C72.871 35.2819 72.7833 34.7331 72.5181 34.3801C72.3242 34.1333 72.006 33.9395 71.4939 33.9395C70.9635 33.9395 70.6105 34.2047 70.3821 34.576C70.1536 34.982 70.0822 35.5655 70.0638 36.2346V39.9436C70.0638 40.0843 69.9393 40.2088 69.7986 40.2088H67.9971C67.838 40.2088 67.7319 40.0843 67.7319 39.9436V32.3869C67.7319 32.2278 67.838 32.1217 67.9971 32.1217H69.7272C69.8679 32.1217 69.9924 32.2278 69.9924 32.3869V32.6868H70.0475Z" fill="#64ECEC"/>
<path d="M88.5169 37.9851C88.7107 37.879 88.8515 37.9137 88.9229 38.0565L89.5411 39.203C89.5941 39.3275 89.5411 39.4683 89.4166 39.556C88.7638 40.015 87.5622 40.3863 86.3789 40.3863C85.0202 40.3863 83.9246 39.962 83.1657 39.203C82.4068 38.4625 81.9824 37.3669 81.9824 36.0776C81.9824 34.8596 82.4414 33.8355 83.1657 33.0929C83.8553 32.387 84.861 31.9626 86.132 31.9626C87.5968 31.9626 88.621 32.5094 89.2575 33.3744C89.841 34.168 90.0164 35.3697 90.0001 36.606C90.0001 36.7651 89.894 36.8712 89.7349 36.8712H84.455C84.5428 37.3302 84.7019 37.6648 84.9855 37.9484C85.3384 38.3197 85.9035 38.5318 86.5564 38.5318C87.3337 38.5318 87.9335 38.3197 88.5169 37.9851ZM87.7396 35.335C87.7213 34.9106 87.5989 34.576 87.352 34.2761C87.0868 33.9946 86.6625 33.7988 86.1504 33.7988C85.62 33.7988 85.1446 33.9762 84.8794 34.2761C84.6325 34.5577 84.4918 34.929 84.4387 35.335H87.7396Z" fill="#64ECEC"/>
<path d="M34.4314 1.39748V0.818089C34.4314 0.367222 34.0662 0 33.6133 0H29.3005C28.8496 0 28.4824 0.365182 28.4824 0.818089V10.2088C28.4845 6.25502 30.9387 2.85413 34.4314 1.39748Z" fill="url(#paint1_linear)"/>
<path d="M28.4849 10.372V20.8827C28.4849 21.3335 28.85 21.7008 29.303 21.7008H33.6158C34.0666 21.7008 34.4339 21.3356 34.4339 20.8827V10.372V1.39746C30.9391 2.88063 28.4849 6.3468 28.4849 10.372Z" fill="url(#paint2_linear)"/>
<path d="M34.4318 1.39746C30.9391 2.85411 28.4849 6.25499 28.4849 10.2088V10.372C28.4849 6.3468 30.9391 2.88063 34.4318 1.39746Z" fill="url(#paint3_linear)"/>
<path d="M34.4318 1.39746C30.9391 2.85411 28.4849 6.25499 28.4849 10.2088V10.372C28.4849 6.3468 30.9391 2.88063 34.4318 1.39746Z" fill="url(#paint4_linear)"/>
<path d="M34.4312 1.39763V10.3721C34.4312 8.27692 36.1347 6.57342 38.2299 6.57342C38.3931 6.57342 38.5563 6.58362 38.7134 6.60402V0.638706C38.5522 0.630545 38.3931 0.626465 38.2299 0.626465C36.8834 0.626465 35.6001 0.901881 34.4312 1.39763Z" fill="url(#paint5_linear)"/>
<path d="M45.0012 3.36832C44.1464 2.54003 43.1406 1.86883 42.0287 1.39757C41.4922 1.16907 40.9291 0.987501 40.3477 0.856934V7.22212C41.3269 7.88108 41.9838 8.98478 42.0246 10.2435C42.0267 10.2578 42.0267 10.2721 42.0267 10.2864C42.043 8.42171 42.5836 6.68148 43.5098 5.20443C43.9322 4.53323 44.434 3.91712 45.0012 3.36832Z" fill="url(#paint6_linear)"/>
<path d="M61.4385 9.12356C61.4303 9.05623 61.4201 8.98891 61.4099 8.92363C61.4079 8.90527 61.4058 8.88486 61.4018 8.8665C61.3916 8.79306 61.3793 8.72165 61.3671 8.65025C61.3589 8.59721 61.3487 8.54824 61.3385 8.49724C61.3181 8.39727 61.2916 8.29731 61.2732 8.19734C61.2692 8.17082 61.261 8.14226 61.2549 8.1137C61.2406 8.05657 61.2263 7.99741 61.212 7.94029C61.1569 7.72811 61.0957 7.51798 61.0264 7.31193C61.008 7.25481 60.9897 7.19972 60.9693 7.1426C60.9509 7.08548 60.9285 7.03039 60.908 6.97531C60.8672 6.8631 60.8224 6.75294 60.7775 6.64277C60.6877 6.42448 60.5878 6.20822 60.4817 5.99809C60.4551 5.94505 60.4286 5.89404 60.4001 5.841C60.3735 5.79 60.347 5.73899 60.3185 5.69003C60.2328 5.5309 60.141 5.37381 60.043 5.2208C59.9818 5.12492 59.9206 5.02903 59.8574 4.93519C59.8553 4.93315 59.8554 4.93111 59.8554 4.92907C59.7941 4.8393 59.7329 4.75158 59.6697 4.66589C59.6615 4.65569 59.6554 4.64345 59.6452 4.63325C59.5106 4.44964 59.3678 4.26807 59.2209 4.09466C59.1515 4.01509 59.0821 3.93349 59.0128 3.85596C58.9985 3.84168 58.9883 3.8274 58.972 3.81312C58.8985 3.73355 58.8251 3.65399 58.7496 3.57647C58.5884 3.40918 58.4191 3.25005 58.2457 3.095L58.2396 3.08888C58.162 3.01951 58.0845 2.95423 58.007 2.88894C57.9907 2.87466 57.9723 2.86038 57.954 2.8461C57.8703 2.77674 57.7867 2.71145 57.701 2.64617C57.5153 2.50336 57.3256 2.36871 57.1277 2.23814C56.9318 2.10962 56.7299 1.98517 56.5259 1.87092C56.3259 1.75872 56.1219 1.65263 55.9118 1.5547C55.8995 1.54858 55.8873 1.5445 55.8771 1.53838C55.7771 1.49146 55.6772 1.44658 55.5731 1.40373C55.4997 1.37313 55.4262 1.34253 55.3528 1.31397C55.2039 1.25685 55.0549 1.20176 54.904 1.14872C53.9206 0.814139 52.8679 0.632568 51.7744 0.632568C50.4279 0.632568 49.1447 0.907985 47.9777 1.40373C47.7697 1.4935 47.5636 1.58735 47.3657 1.69139C47.2984 1.72607 47.2311 1.76076 47.1658 1.79544C47.0332 1.86684 46.9026 1.94029 46.7741 2.01781C46.7108 2.05657 46.6455 2.09534 46.5843 2.13614C46.5211 2.17694 46.4579 2.2157 46.3946 2.25855C46.3477 2.28915 46.2987 2.32179 46.2518 2.35443C46.1763 2.40747 46.1008 2.46052 46.0274 2.5156C45.9662 2.55844 45.907 2.60333 45.8499 2.65025C45.8009 2.68697 45.754 2.72369 45.7071 2.76246C45.6275 2.8257 45.55 2.88894 45.4745 2.95423C45.4276 2.99503 45.3786 3.03583 45.3337 3.07663C45.2807 3.12356 45.2277 3.17252 45.1746 3.21944C45.1175 3.27249 45.0624 3.32553 45.0073 3.37857L45.0094 3.38061C46.821 5.13512 47.9594 7.58327 47.9818 10.2946C48.0287 8.25039 49.6955 6.60197 51.7459 6.58361C53.8533 6.56524 55.5772 8.36055 55.5772 10.468V20.8951C55.5772 21.3459 55.9424 21.7132 56.3953 21.7132H60.7081C61.159 21.7132 61.5262 21.348 61.5262 20.8951V10.3721C61.518 9.94981 61.4915 9.53158 61.4385 9.12356Z" fill="url(#paint7_linear)"/>
<path d="M45.0034 3.37043C45.0014 3.36839 45.0014 3.36839 45.0034 3.37043H44.9993C44.4322 3.91922 43.9323 4.5333 43.51 5.2045C42.5838 6.67951 42.0411 8.41973 42.0269 10.2844C42.0289 10.313 42.0289 10.3415 42.0289 10.3701V12.5326H42.0269V20.8808C42.0269 21.3317 42.392 21.6989 42.8449 21.6989H43.3387H47.1578C47.6086 21.6989 47.9759 21.3337 47.9759 20.8808V10.3721C47.9759 10.3436 47.9759 10.315 47.9779 10.2864V10.2844V10.2864C47.9534 7.57512 46.815 5.12493 45.0034 3.37043Z" fill="url(#paint8_linear)"/>
<path d="M45.0015 3.36816C44.4343 3.91696 43.9325 4.53307 43.5122 5.20427C43.9325 4.53511 44.4323 3.919 45.0015 3.36816Z" fill="url(#paint9_linear)"/>
<path d="M45.0015 3.36816C44.4343 3.91696 43.9325 4.53307 43.5122 5.20427C43.9325 4.53511 44.4323 3.919 45.0015 3.36816Z" fill="url(#paint10_linear)"/>
<path d="M45.001 3.36816C46.8146 5.12471 47.953 7.5749 47.9755 10.2842V10.2821C47.953 7.57286 46.8146 5.12471 45.001 3.36816Z" fill="url(#paint11_linear)"/>
<path d="M45.001 3.36816C46.8146 5.12471 47.953 7.5749 47.9755 10.2842V10.2821C47.953 7.57286 46.8146 5.12471 45.001 3.36816Z" fill="url(#paint12_linear)"/>
</g>
<defs>
<linearGradient id="paint0_linear" x1="65.7878" y1="39.2744" x2="62.4791" y2="39.3181" gradientUnits="userSpaceOnUse">
<stop stop-color="#59E2E2"/>
<stop offset="1" stop-color="#863EFF" stop-opacity="0"/>
</linearGradient>
<linearGradient id="paint1_linear" x1="34.4623" y1="6.16498" x2="27.4087" y2="6.21962" gradientUnits="userSpaceOnUse">
<stop stop-color="#59E2E2"/>
<stop offset="1" stop-color="#863EFF" stop-opacity="0"/>
</linearGradient>
<linearGradient id="paint2_linear" x1="27.5424" y1="13.3628" x2="40.6803" y2="5.7211" gradientUnits="userSpaceOnUse">
<stop stop-color="#59E2E2"/>
<stop offset="1" stop-color="#863EFF" stop-opacity="0"/>
</linearGradient>
<linearGradient id="paint3_linear" x1="31.4204" y1="10.3295" x2="31.5195" y2="-1.76379" gradientUnits="userSpaceOnUse">
<stop offset="1.02703e-07" stop-color="#59E2E2"/>
<stop offset="1" stop-color="#438DBA"/>
</linearGradient>
<linearGradient id="paint4_linear" x1="31.3474" y1="19.7952" x2="31.542" y2="-4.92308" gradientUnits="userSpaceOnUse">
<stop offset="1.02703e-07" stop-color="#59E2E2"/>
<stop offset="1" stop-color="#438DBA"/>
</linearGradient>
<linearGradient id="paint5_linear" x1="25.5015" y1="9.99676" x2="43.7089" y2="6.04636" gradientUnits="userSpaceOnUse">
<stop stop-color="#59E2E2"/>
<stop offset="0.791667" stop-color="#863EFF" stop-opacity="0"/>
</linearGradient>
<linearGradient id="paint6_linear" x1="40.9046" y1="1.32617" x2="41.3843" y2="14.5918" gradientUnits="userSpaceOnUse">
<stop stop-color="#59E2E2" stop-opacity="0.66"/>
<stop offset="1" stop-color="#863EFF" stop-opacity="0"/>
</linearGradient>
<linearGradient id="paint7_linear" x1="61.6119" y1="13.3629" x2="42.0267" y2="13.5669" gradientUnits="userSpaceOnUse">
<stop stop-color="#59E2E2"/>
<stop offset="1" stop-color="#863EFF" stop-opacity="0"/>
</linearGradient>
<linearGradient id="paint8_linear" x1="48.0088" y1="14.4382" x2="40.9524" y2="14.4687" gradientUnits="userSpaceOnUse">
<stop stop-color="#59E2E2"/>
<stop offset="1" stop-color="#863EFF" stop-opacity="0"/>
</linearGradient>
<linearGradient id="paint9_linear" x1="50.7739" y1="4.15265" x2="41.1587" y2="4.35089" gradientUnits="userSpaceOnUse">
<stop offset="1.02703e-07" stop-color="#59E2E2"/>
<stop offset="1" stop-color="#438DBA"/>
</linearGradient>
<linearGradient id="paint10_linear" x1="42.0267" y1="4.28701" x2="47.9757" y2="4.28701" gradientUnits="userSpaceOnUse">
<stop offset="1.02703e-07" stop-color="#59E2E2"/>
<stop offset="1" stop-color="#438DBA"/>
</linearGradient>
<linearGradient id="paint11_linear" x1="45.0014" y1="6.82701" x2="61.5177" y2="6.82701" gradientUnits="userSpaceOnUse">
<stop offset="1.02703e-07" stop-color="#59E2E2"/>
<stop offset="1" stop-color="#438DBA"/>
</linearGradient>
<linearGradient id="paint12_linear" x1="42.0276" y1="6.82701" x2="47.9752" y2="6.82701" gradientUnits="userSpaceOnUse">
<stop offset="1.02703e-07" stop-color="#59E2E2"/>
<stop offset="1" stop-color="#438DBA"/>
</linearGradient>
<clipPath id="clip0">
<rect width="90" height="44.4114" fill="white"/>
</clipPath>
</defs>
</svg>
