<svg width="24" height="24" viewBox="0 0 24 24" fill="none" xmlns="http://www.w3.org/2000/svg">
<path d="M23.6671 11.6139C23.6671 14.0232 22.6042 16.2218 20.855 17.9176V22.0841L16.6885 20.4903C15.2535 21.0165 13.6697 21.3119 12.0006 21.3119C5.55744 21.3119 0.333984 16.97 0.333984 11.6145C0.333984 6.25904 5.55744 1.9165 12.0006 1.9165C18.4437 1.9165 23.6671 6.25838 23.6671 11.6139Z" fill="#12D3CE"/>
<path d="M20.8545 22.4175C20.8138 22.4175 20.7738 22.4101 20.7351 22.3955L16.6846 20.8464C15.1949 21.3772 13.6191 21.6459 12 21.6459C5.3835 21.6452 0 17.1453 0 11.6145C0 6.08359 5.3835 1.58301 12 1.58301C18.6172 1.58301 24 6.08292 24 11.6138C24 13.9684 23.0024 16.2511 21.1879 18.0576V22.084C21.1879 22.1941 21.1339 22.2961 21.0432 22.3588C20.9878 22.3968 20.9211 22.4175 20.8545 22.4175ZM16.688 20.1568C16.7286 20.1568 16.7687 20.1642 16.8073 20.1788L20.521 21.5992V17.9175C20.521 17.8269 20.5577 17.7408 20.6224 17.6781C22.3702 15.9837 23.3325 13.8297 23.3325 11.6138C23.3325 6.45036 18.2484 2.24986 11.9993 2.24986C5.75026 2.24986 0.666852 6.45036 0.666852 11.6145C0.666852 16.7786 5.75093 20.9791 12 20.9791C13.5838 20.9791 15.1229 20.7097 16.5733 20.1775C16.6106 20.1635 16.6493 20.1568 16.688 20.1568Z" fill="#12D3CE"/>
</svg>
