<svg width="68" height="68" viewBox="0 0 68 68" fill="none" xmlns="http://www.w3.org/2000/svg">
<g clip-path="url(#clip0)">
<path d="M34.0001 14.1934C31.7081 14.1934 29.5473 16.4319 27.9206 18.0585L7.7207 38.2682V61.435C7.7207 63.9697 9.77954 66.0285 12.3191 66.0285H55.6907C58.2254 66.0285 60.2843 63.9697 60.2843 61.435V38.2682L40.0795 18.0585C38.4576 16.4319 36.292 14.1934 34.0001 14.1934ZM48.0186 48.3779H38.7198V57.6766H29.2803V48.3779H19.9766V38.9431H29.2803V29.6395H38.7198V38.9431H48.0186V48.3779Z" fill="#12D3CE"/>
<path d="M66.9072 28.8772L43.9978 5.9823C38.6516 0.63611 29.348 0.63611 23.9921 5.9823L1.09716 28.8772C-0.364419 30.3388 -0.364419 32.6987 1.09716 34.1651C2.50533 35.5733 4.9672 35.5733 6.37537 34.1651L29.2751 11.2605C31.8001 8.73551 36.1994 8.73551 38.7196 11.2605L61.6193 34.1651C62.3234 34.8692 63.2654 35.2528 64.256 35.2528C65.2514 35.2528 66.1934 34.8692 66.9072 34.1651C68.364 32.6987 68.364 30.3388 66.9072 28.8772Z" fill="#12D3CE"/>
</g>
<defs>
<clipPath id="clip0">
<rect width="68" height="68" fill="white"/>
</clipPath>
</defs>
</svg>
