<svg width="68" height="68" viewBox="0 0 68 68" fill="none" xmlns="http://www.w3.org/2000/svg">
<path d="M35.1798 17.7703C33.6748 18.1464 32.1489 18.4337 30.6101 18.6308L30.5269 18.6416C36.5579 22.9149 44.1525 23.4781 46.7211 23.5412V23.0631C40.0903 22.3823 36.3658 19.0328 35.1798 17.7703Z" fill="#12D3CE"/>
<path d="M22.1823 22.9881L22.408 18.0325C22.4136 17.9101 22.4433 17.79 22.4955 17.6791C22.5476 17.5683 22.6212 17.4688 22.7119 17.3864C22.8027 17.3041 22.9088 17.2405 23.0242 17.1993C23.1396 17.1581 23.262 17.1401 23.3843 17.1464C25.7301 17.2146 28.0775 17.0931 30.4036 16.7829C33.9513 16.316 38.9209 15.1917 42.4489 12.4859C42.6446 12.3358 42.8918 12.2696 43.1363 12.3019C43.3808 12.3341 43.6024 12.4622 43.7525 12.6579C43.9025 12.8535 43.9687 13.1008 43.9365 13.3453C43.9042 13.5897 43.7761 13.8114 43.5805 13.9614C41.8539 15.2852 39.7361 16.358 37.2492 17.174C38.7319 18.4814 41.8518 20.6386 46.7212 21.1912V17.501C46.7212 14.1278 45.3812 10.8928 42.9961 8.50764C40.6109 6.12245 37.3759 4.78247 34.0027 4.78247C30.6295 4.78247 27.3945 6.12245 25.0093 8.50764C22.6242 10.8928 21.2842 14.1278 21.2842 17.501V23.8494C21.4337 23.8475 21.5804 23.8093 21.712 23.7383C21.8493 23.6655 21.9651 23.5579 22.0476 23.4262C22.1302 23.2946 22.1766 23.1435 22.1823 22.9881Z" fill="#12D3CE"/>
<path d="M54.1421 57.2945C54.1469 56.8505 54.1002 56.4074 54.0031 55.9741C53.9848 55.8954 53.965 55.8174 53.9437 55.7398C53.4002 53.7609 51.8637 52.1864 49.8337 51.5282L40.1671 48.3938C38.2518 49.3495 36.1406 49.847 34.0002 49.847C31.8597 49.847 29.7485 49.3495 27.8333 48.3938L18.1667 51.5282C16.1366 52.1864 14.6001 53.7609 14.0567 55.7398C14.0354 55.8174 14.0156 55.8954 13.9972 55.9741C13.9001 56.4074 13.8535 56.8505 13.8582 57.2945V63.2173H54.1421V57.2945Z" fill="#12D3CE"/>
<path d="M28.8594 46.8278C30.4653 47.5925 32.2215 47.9893 34.0001 47.9893C35.7788 47.9893 37.535 47.5925 39.1409 46.8278V43.3481C35.8452 44.6908 32.1551 44.6908 28.8594 43.3481V46.8278Z" fill="#12D3CE"/>
<path d="M20.9542 29.6894C21.1428 29.7224 21.3166 29.8128 21.4519 29.9483C21.5872 30.0838 21.6773 30.2578 21.71 30.4464L22.3935 32.7972C22.4019 32.826 22.4089 32.8554 22.4145 32.885C22.9224 35.5862 24.3583 38.0251 26.4738 39.7798C28.5894 41.5346 31.2515 42.495 34.0001 42.495C36.7487 42.495 39.4109 41.5346 41.5264 39.7798C43.6419 38.0251 45.0778 35.5862 45.5857 32.885C45.5913 32.8554 45.5984 32.826 45.6067 32.7972L46.2902 30.4464C46.3229 30.2578 46.413 30.0838 46.5483 29.9483C46.6836 29.8128 46.8574 29.7224 47.046 29.6894C47.3831 29.6295 47.7043 29.5011 47.9897 29.3122C48.2752 29.1233 48.519 28.8778 48.7059 28.591C48.8928 28.3042 49.0189 27.9821 49.0765 27.6447C49.134 27.3072 49.1217 26.9615 49.0405 26.629C48.9686 26.32 48.808 26.0388 48.5784 25.82C48.3487 25.6011 48.0601 25.4542 47.7481 25.3973C47.7277 25.3994 47.7075 25.4019 47.6868 25.4027C47.5634 25.4076 44.6181 25.5102 40.6641 24.7387C37.0847 24.0407 31.9944 22.4636 27.8486 18.9082C26.2947 19.019 25.0262 19.0337 24.2242 19.0264L24.04 23.0723C24.0211 23.5277 23.8893 23.9713 23.6565 24.3632C23.4237 24.7551 23.0971 25.083 22.7062 25.3174C22.3152 25.5518 21.8722 25.6854 21.4168 25.7062C20.9615 25.7269 20.5081 25.6342 20.0974 25.4363C19.818 25.5143 19.5648 25.6663 19.3646 25.8762C19.1644 26.0861 19.0245 26.3462 18.9598 26.629C18.8785 26.9615 18.8663 27.3072 18.9238 27.6446C18.9814 27.982 19.1075 28.3041 19.2945 28.5909C19.4814 28.8776 19.7251 29.1231 20.0105 29.312C20.296 29.5008 20.6172 29.6292 20.9542 29.6891V29.6894Z" fill="#12D3CE"/>
</svg>
