<svg width="30" height="30" viewBox="0 0 30 30" fill="none" xmlns="http://www.w3.org/2000/svg">
<path d="M27.8112 4.3516C26.3315 2.67266 24.2788 1.74805 22.0312 1.74805C18.8702 1.74805 16.869 3.63594 15.7468 5.21973C15.4556 5.6307 15.2079 6.04279 15 6.43057C14.7921 6.04279 14.5444 5.6307 14.2532 5.21973C13.131 3.63594 11.1298 1.74805 7.96875 1.74805C5.72121 1.74805 3.6685 2.67272 2.18877 4.35166C0.777363 5.95326 0 8.09826 0 10.3915C0 12.8878 0.97459 15.2096 3.06709 17.6981C4.93723 19.9224 7.62768 22.215 10.7432 24.8698C11.9041 25.8591 13.1046 26.8822 14.3827 28.0005L14.4211 28.0341C14.5868 28.1792 14.7934 28.2516 15 28.2516C15.2066 28.2516 15.4132 28.1791 15.5789 28.0341L15.6173 28.0005C16.8954 26.8822 18.0959 25.8592 19.257 24.8697C22.3723 22.2151 25.0628 19.9224 26.9329 17.6981C29.0254 15.2095 30 12.8878 30 10.3915C30 8.09826 29.2226 5.95326 27.8112 4.3516ZM18.1168 23.5319C17.116 24.3847 16.086 25.2624 15 26.2065C13.914 25.2625 12.884 24.3847 11.883 23.5318C5.78584 18.3361 1.75781 14.9036 1.75781 10.3915C1.75781 8.52646 2.3792 6.7942 3.50754 5.51387C4.64883 4.219 6.23314 3.50586 7.96875 3.50586C10.3787 3.50586 11.9365 4.99051 12.8189 6.23598C13.6104 7.35301 14.0235 8.47906 14.1643 8.91131C14.2822 9.27313 14.6195 9.51799 15 9.51799C15.3805 9.51799 15.7178 9.27313 15.8357 8.91131C15.9765 8.47906 16.3896 7.35301 17.1811 6.23592C18.0635 4.99051 19.6213 3.50586 22.0312 3.50586C23.7669 3.50586 25.3512 4.219 26.4924 5.51387C27.6208 6.7942 28.2422 8.52646 28.2422 10.3915C28.2422 14.9036 24.2142 18.3361 18.1168 23.5319Z" fill="#A481DE"/>
</svg>
