<svg width="18" height="18" viewBox="0 0 18 18" fill="none" xmlns="http://www.w3.org/2000/svg">
<path d="M8.83512 4.38349L6.86637 2.41474C6.64699 2.19509 6.29037 2.19509 6.07099 2.41474L4.10224 4.38349C3.88259 4.60315 3.88259 4.95921 4.10224 5.17887C4.32162 5.39852 4.67824 5.39852 4.89762 5.17887L5.90618 4.1703V15.1874C5.90618 15.4979 6.15818 15.7499 6.46868 15.7499C6.77918 15.7499 7.03118 15.4979 7.03118 15.1874V4.1703L8.03974 5.17887C8.14943 5.28883 8.29343 5.34368 8.43743 5.34368C8.58143 5.34368 8.72543 5.28883 8.83512 5.17887C9.05477 4.95921 9.05477 4.60315 8.83512 4.38349Z" fill="#A481DE"/>
<path d="M13.8976 12.8211C13.6779 12.6014 13.3219 12.6014 13.1022 12.8211L12.0937 13.8296V2.8125C12.0937 2.502 11.8417 2.25 11.5312 2.25C11.2207 2.25 10.9687 2.502 10.9687 2.8125V13.8296L9.96012 12.8211C9.74046 12.6014 9.38412 12.6014 9.16474 12.8211C8.94509 13.0407 8.94509 13.3968 9.16474 13.6164L11.1335 15.5852C11.2435 15.6952 11.3872 15.75 11.5312 15.75C11.6752 15.75 11.8189 15.6952 11.9289 15.5852L13.8976 13.6164C14.1173 13.3968 14.1173 13.0407 13.8976 12.8211Z" fill="#A481DE"/>
</svg>
