<svg width="24" height="24" viewBox="0 0 24 24" fill="none" xmlns="http://www.w3.org/2000/svg">
<path d="M0.333845 11.6139C0.333845 14.0232 1.39681 16.2218 3.14596 17.9176V22.0841L7.31245 20.4903C8.74752 21.0165 10.3313 21.3119 12.0004 21.3119C18.4435 21.3119 23.667 16.97 23.667 11.6145C23.667 6.25904 18.4435 1.9165 12.0004 1.9165C5.5573 1.9165 0.333845 6.25838 0.333845 11.6139Z" fill="#A481DE"/>
<path d="M3.14554 22.4175C3.18622 22.4175 3.22623 22.4101 3.26491 22.3955L7.31536 20.8464C8.80511 21.3772 10.3809 21.6459 12 21.6459C18.6165 21.6452 24 17.1453 24 11.6145C24 6.08359 18.6165 1.58301 12 1.58301C5.38283 1.58301 0 6.08292 0 11.6138C0 13.9684 0.99761 16.2511 2.81211 18.0576V22.084C2.81211 22.1941 2.86613 22.2961 2.95682 22.3588C3.01217 22.3968 3.07886 22.4175 3.14554 22.4175ZM7.31203 20.1568C7.27135 20.1568 7.23134 20.1642 7.19267 20.1788L3.47897 21.5992V17.9175C3.47897 17.8269 3.44229 17.7408 3.37761 17.6781C1.62979 15.9837 0.667521 13.8297 0.667521 11.6138C0.667521 6.45036 5.7516 2.24986 12.0007 2.24986C18.2497 2.24986 23.3331 6.45036 23.3331 11.6145C23.3331 16.7786 18.2491 20.9791 12 20.9791C10.4162 20.9791 8.87713 20.7097 7.42673 20.1775C7.38939 20.1635 7.35071 20.1568 7.31203 20.1568Z" fill="#A481DE"/>
</svg>
