<svg width="24" height="24" viewBox="0 0 24 24" fill="none" xmlns="http://www.w3.org/2000/svg">
<g clip-path="url(#clip0)">
<path d="M5.51029 11H0.51027C0.23427 11 0.0102539 11.224 0.0102539 11.5V23.5C0.0102539 23.776 0.23427 24 0.51027 24H5.51029C5.78628 24 6.0103 23.776 6.0103 23.5V11.5C6.01025 11.224 5.78727 11 5.51029 11Z" fill="#12D3CE"/>
<path d="M14.4898 0H9.48976C9.21376 0 8.98975 0.224016 8.98975 0.500016V23.5C8.98975 23.776 9.21376 24 9.48976 24H14.4898C14.7658 24 14.9898 23.776 14.9898 23.5V0.500016C14.9898 0.224016 14.7658 0 14.4898 0Z" fill="#12D3CE"/>
<path d="M23.4898 5H18.4898C18.2138 5 17.9897 5.22402 17.9897 5.50002V23.5C17.9897 23.776 18.2138 24 18.4898 24H23.4898C23.7658 24 23.9898 23.776 23.9898 23.5V5.50002C23.9898 5.22397 23.7658 5 23.4898 5Z" fill="#12D3CE"/>
</g>
<defs>
<clipPath id="clip0">
<rect width="24" height="24" fill="white"/>
</clipPath>
</defs>
</svg>
