<svg width="52" height="52" viewBox="0 0 52 52" fill="none" xmlns="http://www.w3.org/2000/svg">
<g clip-path="url(#clip0)">
<path d="M28.8303 0H21.3842C20.3996 0 19.5996 0.800019 19.5996 1.78461C19.5996 2.76921 20.3996 3.56923 21.3842 3.56923H28.8303C29.8149 3.56923 30.615 2.76921 30.615 1.78461C30.615 0.800019 29.8149 0 28.8303 0Z" fill="#A481DE"/>
<path d="M48.7071 11.7542L43.8457 6.89271C43.1687 6.21578 42.0611 6.21578 41.3226 6.89271C40.6457 7.56964 40.6457 8.67733 41.3226 9.41574L46.1226 14.2158C46.4919 14.585 46.9226 14.7081 47.3534 14.7081C47.7842 14.7081 48.2765 14.5235 48.5842 14.2158C49.3841 13.5388 49.3841 12.4311 48.7071 11.7542Z" fill="#A481DE"/>
<path d="M25.0763 7.44629C12.7686 7.44629 2.79932 17.4156 2.79932 29.7233C2.79932 42.031 12.7686 52.0003 25.0763 52.0003C37.384 52.0003 47.3532 42.031 47.3532 29.7233C47.3532 17.4156 37.384 7.44629 25.0763 7.44629ZM34.3071 32.1232H25.0763C24.0917 32.1232 23.2917 31.3232 23.2917 30.3386V18.7694C23.2917 17.7848 24.0917 16.9848 25.0763 16.9848C26.0609 16.9848 26.8609 17.7848 26.8609 18.7694V28.6156H34.3071C35.2916 28.6156 36.0917 29.4156 36.0917 30.4002C36.0917 31.3233 35.2916 32.1232 34.3071 32.1232Z" fill="#A2EEEC"/>
</g>
<defs>
<clipPath id="clip0">
<rect width="52" height="52" fill="white"/>
</clipPath>
</defs>
</svg>
