<svg width="40" height="40" viewBox="0 0 40 40" fill="none" xmlns="http://www.w3.org/2000/svg">
<g clip-path="url(#clip0)">
<path d="M34.2861 12.8565H27.1432C26.3542 12.8565 25.7146 13.4961 25.7146 14.2851C25.7146 15.0742 26.3542 15.7137 27.1432 15.7137H34.2861C35.0751 15.7137 35.7147 16.3533 35.7147 17.1424V35.714C35.7147 36.503 35.0751 37.1426 34.2861 37.1426H5.71446C4.92544 37.1426 4.28585 36.503 4.28585 35.714V17.1423C4.28585 16.3533 4.92544 15.7137 5.71446 15.7137H12.8573C13.6464 15.7137 14.286 15.0741 14.286 14.2851C14.286 13.496 13.6464 12.8564 12.8573 12.8564H5.71446C3.3475 12.8564 1.42871 14.7752 1.42871 17.1422V35.7138C1.42871 38.0807 3.3475 39.9995 5.71446 39.9995H34.2861C36.653 39.9995 38.5718 38.0807 38.5718 35.7138V17.1423C38.5718 14.7753 36.653 12.8565 34.2861 12.8565Z" fill="#A2EEEC"/>
<path d="M28.1531 7.56118L21.0103 0.4183C20.4524 -0.139433 19.5481 -0.139433 18.9903 0.4183L11.8473 7.56118C11.2992 8.12871 11.3149 9.03307 11.8824 9.58118C12.4361 10.1159 13.3137 10.1159 13.8674 9.58118L18.5717 4.87682V28.5714C18.5717 29.3604 19.2113 30 20.0003 30C20.7894 30 21.4289 29.3604 21.4289 28.5714V4.8769L26.1333 9.58126C26.7008 10.1294 27.6052 10.1136 28.1533 9.5461C28.6879 8.99247 28.6878 8.11482 28.1531 7.56118Z" fill="#A2EEEC"/>
</g>
<defs>
<clipPath id="clip0">
<rect width="40" height="40" fill="white"/>
</clipPath>
</defs>
</svg>
