<svg width="24" height="24" viewBox="0 0 24 24" fill="none" xmlns="http://www.w3.org/2000/svg">
<path d="M23.6804 19.1692L14.0411 2.47343C13.6151 1.73556 12.8521 1.29492 12 1.29492C11.1478 1.29492 10.3848 1.73546 9.95881 2.47343L0.319575 19.1692C-0.106525 19.907 -0.106525 20.7881 0.319575 21.5261C0.745674 22.264 1.50862 22.7046 2.36072 22.7046H21.6395C22.4915 22.7046 23.2545 22.264 23.6805 21.5262C24.1065 20.7882 24.1064 19.9071 23.6804 19.1692ZM12 19.9884C11.1541 19.9884 10.4659 19.3002 10.4659 18.4542C10.4659 17.6084 11.1541 16.9201 12 16.9201C12.846 16.9201 13.5342 17.6084 13.5342 18.4542C13.5341 19.3003 12.8459 19.9884 12 19.9884ZM13.5446 13.4305C13.5446 14.2821 12.8517 14.975 12 14.975C11.1484 14.975 10.4555 14.2821 10.4555 13.4305V6.34178C10.4555 5.93773 10.7831 5.61016 11.1872 5.61016H12.813C13.2172 5.61016 13.5447 5.93773 13.5447 6.34178V13.4305H13.5446Z" fill="#FCE07C"/>
</svg>
