<svg width="24" height="24" viewBox="0 0 24 24" fill="none" xmlns="http://www.w3.org/2000/svg">
<path d="M23.6804 19.1694L14.0411 2.47367C13.6151 1.7358 12.8521 1.29517 12 1.29517C11.1478 1.29517 10.3848 1.7357 9.95881 2.47367L0.319575 19.1694C-0.106525 19.9073 -0.106525 20.7883 0.319575 21.5263C0.745674 22.2643 1.50862 22.7048 2.36072 22.7048H21.6395C22.4915 22.7048 23.2545 22.2643 23.6805 21.5264C24.1065 20.7884 24.1064 19.9074 23.6804 19.1694ZM12 19.9886C11.1541 19.9886 10.4659 19.3004 10.4659 18.4545C10.4659 17.6086 11.1541 16.9204 12 16.9204C12.846 16.9204 13.5342 17.6086 13.5342 18.4545C13.5341 19.3005 12.8459 19.9886 12 19.9886ZM13.5446 13.4307C13.5446 14.2823 12.8517 14.9752 12 14.9752C11.1484 14.9752 10.4555 14.2823 10.4555 13.4307V6.34203C10.4555 5.93797 10.7831 5.6104 11.1872 5.6104H12.813C13.2172 5.6104 13.5447 5.93797 13.5447 6.34203V13.4307H13.5446Z" fill="#12D3CE"/>
</svg>
