<svg width="52" height="52" viewBox="0 0 52 52" fill="none" xmlns="http://www.w3.org/2000/svg">
<g clip-path="url(#clip0)">
<path d="M29.2327 39.9416C28.2652 39.9416 27.3044 39.8035 26.3767 39.5309C26.2519 39.4942 26.1235 39.4756 25.9951 39.4756C25.867 39.4756 25.7388 39.4941 25.6143 39.5307C24.6878 39.8025 23.7284 39.9403 22.7623 39.9403C19.9374 39.9403 17.2534 38.7726 15.3359 36.7247V50.4766C15.3359 51.0174 15.6226 51.5177 16.0892 51.7911C16.5558 52.0645 17.1324 52.07 17.6042 51.8056L25.9995 47.0999L34.3945 51.8055C34.6261 51.9353 34.8828 52 35.1394 52C35.4057 52 35.6719 51.9302 35.9096 51.791C36.3762 51.5176 36.6628 51.0173 36.6628 50.4765V36.7217C34.7453 38.7721 32.0594 39.9414 29.2327 39.9416Z" fill="#A481DE"/>
<path d="M25.9998 26.4787C30.4072 26.4787 33.9801 22.9055 33.9801 18.4979C33.9801 14.0902 30.4072 10.5171 25.9998 10.5171C21.5924 10.5171 18.0195 14.0902 18.0195 18.4979C18.0195 22.9055 21.5924 26.4787 25.9998 26.4787Z" fill="#A2EEEC"/>
<path d="M43.619 14.9769C44.0206 12.188 42.7487 9.40139 40.3788 7.87765C39.6843 7.43097 39.1359 6.79783 38.793 6.04657C37.6231 3.48334 35.0468 1.82675 32.2295 1.82614C31.4037 1.82594 30.6001 1.58981 29.9055 1.14324C27.5357 -0.380504 24.4727 -0.381113 22.1023 1.14161C21.4078 1.58778 20.6044 1.8235 19.779 1.8235C19.7783 1.8235 19.7775 1.8235 19.7767 1.8235C16.9599 1.8235 14.3834 3.47897 13.2127 6.04119C12.8695 6.79225 12.3209 7.42518 11.6261 7.87155C9.25562 9.39438 7.98254 12.1804 8.383 14.9696C8.50041 15.7869 8.38097 16.616 8.03779 17.3671C6.86687 19.9299 7.30207 22.9619 9.14665 25.0918C9.68726 25.716 10.035 26.478 10.1524 27.2954C10.5528 30.0844 12.5581 32.3998 15.2612 33.1941C16.0535 33.4269 16.758 33.88 17.2986 34.5042C19.1431 36.6339 22.0817 37.4975 24.7853 36.7043C25.5776 36.4719 26.4153 36.472 27.2075 36.7048C27.8751 36.901 28.5567 36.9961 29.233 36.9961C31.2952 36.996 33.3054 36.1111 34.6951 34.5078C35.236 33.8838 35.9408 33.4312 36.7331 33.1987C39.4365 32.4054 41.4428 30.0909 41.8443 27.3021C41.962 26.4847 42.3102 25.7228 42.851 25.0988C44.6965 22.9697 45.133 19.9379 43.9631 17.3747C43.6204 16.6234 43.5014 15.7943 43.619 14.9769ZM25.9999 29.526C19.9195 29.526 14.9728 24.5789 14.9728 18.4981C14.9728 12.4174 19.9195 7.47018 25.9999 7.47018C32.0804 7.47018 37.0271 12.4173 37.0271 18.498C37.0271 24.5788 32.0804 29.526 25.9999 29.526Z" fill="#A2EEEC"/>
</g>
<defs>
<clipPath id="clip0">
<rect width="52" height="52" fill="white"/>
</clipPath>
</defs>
</svg>
