<?xml version="1.0" encoding="utf-8"?><svg viewBox="0 0 90 68" xmlns="http://www.w3.org/2000/svg" xmlns:xlink="http://www.w3.org/1999/xlink"><style>:root>svg{display:none}:root>svg:target{display:block}</style><svg fill="none" viewBox="0 0 24 24" id="appeal-icon" xmlns="http://www.w3.org/2000/svg"><path d="M12 24a2.46 2.46 0 002.462-2.462H9.54A2.46 2.46 0 0012.001 24zM19.385 16.615v-6.153c0-3.785-2.012-6.942-5.538-7.779v-.837A1.844 1.844 0 0012 0a1.844 1.844 0 00-1.847 1.846v.837c-3.526.837-5.538 3.994-5.538 7.779v6.153l-2.462 2.462v1.23h19.693v-1.23l-2.462-2.462z" fill="#12D3CE"/></svg><svg fill="none" viewBox="0 0 24 24" id="arr-back-icon" xmlns="http://www.w3.org/2000/svg"><g clip-path="url(#abclip0)"><path d="M7.828 3.817a.847.847 0 011.21 0 .853.853 0 010 1.197l-6.133 6.132h20.236c.472 0 .859.375.859.847a.862.862 0 01-.86.859H2.906l6.133 6.12a.868.868 0 010 1.21.847.847 0 01-1.21 0L.244 12.598a.853.853 0 010-1.197l7.584-7.584z" fill="#A481DE"/></g><defs><clipPath id="abclip0"><path fill="#fff" d="M0 0h24v24H0z"/></clipPath></defs></svg><svg fill="none" viewBox="0 0 24 24" id="balance-icon" xmlns="http://www.w3.org/2000/svg"><path d="M20.485 3.515A11.921 11.921 0 0012 0a11.922 11.922 0 00-8.485 3.515A11.921 11.921 0 000 12c0 3.205 1.248 6.219 3.515 8.485A11.921 11.921 0 0012 24c3.205 0 6.219-1.248 8.485-3.515A11.921 11.921 0 0024 12c0-3.205-1.248-6.219-3.515-8.485zm-7.732 13.707h-.05v1.556a.703.703 0 11-1.406 0v-1.556H9.74a.703.703 0 010-1.406h3.012c.858 0 1.556-.699 1.556-1.557s-.698-1.556-1.556-1.556h-1.506a2.966 2.966 0 01-2.963-2.962 2.966 2.966 0 012.963-2.963h.05V5.222a.703.703 0 011.406 0v1.556h1.556a.703.703 0 010 1.406h-3.012c-.858 0-1.556.699-1.556 1.557s.698 1.556 1.556 1.556h1.506a2.966 2.966 0 012.963 2.962 2.966 2.966 0 01-2.963 2.963z" fill="#12D3CE"/></svg><svg fill="none" viewBox="0 0 24 24" id="chief-icon" xmlns="http://www.w3.org/2000/svg"><path d="M23.34 12.964h-8.317a.66.66 0 00-.66.66c0 .185.079.352.202.472l5.857 5.857a.66.66 0 001.032-.08 10.518 10.518 0 002.533-6.13.51.51 0 00.014-.119.66.66 0 00-.66-.66zM12.511 1.007a.66.66 0 00-.657.66v9.244a.66.66 0 00.657.662h9.246c.364 0 .66-.297.66-.662-.327-5.32-4.584-9.578-9.906-9.904z" fill="#12D3CE"/><path d="M17.592 19.414l-6.82-6.82a.657.657 0 01-.185-.46L10.584 2.5a.657.657 0 00-.657-.657C4.387 2.18 0 6.783 0 12.406c0 5.846 4.739 10.587 10.584 10.587 2.667 0 5.103-.986 6.964-2.614a.66.66 0 00.044-.965z" fill="#12D3CE"/></svg><svg fill="none" viewBox="0 0 30 30" id="date-icon" xmlns="http://www.w3.org/2000/svg"><path d="M26.133 2.344h-2.695V.938a.937.937 0 10-1.875 0v1.406H8.438V.938a.938.938 0 00-1.876 0v1.406H3.868A3.872 3.872 0 000 6.21v19.922A3.872 3.872 0 003.867 30h22.266A3.872 3.872 0 0030 26.133V6.21a3.872 3.872 0 00-3.867-3.867zM3.867 4.219h2.696v.937a.938.938 0 001.875 0V4.22h13.124v.937a.938.938 0 001.875 0V4.22h2.696c1.098 0 1.992.893 1.992 1.992v2.226H1.875V6.212c0-1.099.894-1.992 1.992-1.992zm22.266 23.906H3.867a1.994 1.994 0 01-1.992-1.992v-15.82h26.25v15.82a1.994 1.994 0 01-1.992 1.992z" fill="#A481DE"/></svg><svg fill="none" viewBox="0 0 52 52" id="doctor-point-icon" xmlns="http://www.w3.org/2000/svg"><g clip-path="url(#afclip0)"><path d="M26 0c-5.603 0-10.16 4.558-10.16 10.162v5.264c0 5.603 4.557 10.162 10.16 10.162s10.16-4.559 10.16-10.162v-5.264C36.16 4.558 31.603 0 26 0z" fill="#A2EEEC"/><path d="M48.407 38.83c-3.253-5.545-8.454-9.655-14.643-11.575a.405.405 0 00-.406.1c-2.879 2.838-6.456 5.053-7.35 5.588-.956-.61-4.977-3.232-7.368-5.589a.405.405 0 00-.405-.099c-6.19 1.92-11.39 6.03-14.643 11.575a.407.407 0 000 .412C8.211 47.111 16.797 52 26 52c9.203 0 17.79-4.889 22.408-12.758a.406.406 0 000-.412zm-8.589 3.03c0 .225-.213.396-.437.396H36.63c-.224 0-.469.193-.469.417v2.846c0 .224-.12.395-.344.395h-2.471c-.224 0-.436-.17-.436-.395v-2.846c0-.224-.154-.417-.378-.417h-2.87a.4.4 0 01-.41-.395v-2.45c0-.225.186-.406.41-.406h2.87c.224 0 .378-.183.378-.408v-2.849c0-.224.21-.4.435-.4h2.445c.224 0 .371.176.371.4v2.858c0 .224.217.399.442.399h2.78c.223 0 .436.19.436.414v2.442z" fill="#A481DE"/></g><defs><clipPath id="afclip0"><path fill="#fff" d="M0 0h52v52H0z"/></clipPath></defs></svg><svg fill="none" viewBox="0 0 15 15" id="editing-icon" xmlns="http://www.w3.org/2000/svg"><path d="M0 11.25V15h3.75L14.818 3.933l-3.75-3.75L0 11.249z" fill="#A481DE"/></svg><svg fill="none" viewBox="0 0 24 24" id="facebook-icon" xmlns="http://www.w3.org/2000/svg"><path d="M13.858 24V13.053h3.673l.551-4.267h-4.224V6.062c0-1.235.342-2.077 2.115-2.077l2.258-.001V.167c-.39-.05-1.73-.167-3.29-.167-3.258 0-5.488 1.988-5.488 5.64v3.146H5.769v4.267h3.684V24h4.405z" fill="#A481DE"/></svg><svg fill="none" viewBox="0 0 52 52" id="folder-point-icon" xmlns="http://www.w3.org/2000/svg"><path d="M42.314 14.9H23.553l-3.732-4.436a.638.638 0 00-.51-.23H4.175A4.206 4.206 0 000 14.442v27.28a4.206 4.206 0 004.2 4.2h38.114a4.206 4.206 0 004.2-4.2V19.1a4.206 4.206 0 00-4.2-4.202z" fill="#A2EEEC"/><path d="M47.825 9.465H29.059L25.327 5.03a.637.637 0 00-.51-.23H9.687A4.2 4.2 0 005.53 8.43h13.8a2.442 2.442 0 011.877.872l3.186 3.788h17.92c3.314.005 6 2.69 6.005 6.005v21.35A4.2 4.2 0 0052 36.282V13.66a4.206 4.206 0 00-4.174-4.196z" fill="#A481DE"/></svg><svg fill="none" viewBox="0 0 24 24" id="insta-icon" xmlns="http://www.w3.org/2000/svg"><path d="M20.484 0H3.516A3.52 3.52 0 000 3.516v16.968A3.52 3.52 0 003.516 24h16.968A3.52 3.52 0 0024 20.484V3.516A3.52 3.52 0 0020.484 0zm-8.437 18.281a6.335 6.335 0 01-6.328-6.328 6.335 6.335 0 016.328-6.328 6.335 6.335 0 016.328 6.328 6.335 6.335 0 01-6.328 6.328zm7.031-11.25a2.112 2.112 0 01-2.11-2.11c0-1.162.947-2.109 2.11-2.109 1.163 0 2.11.947 2.11 2.11 0 1.163-.947 2.11-2.11 2.11z" fill="#A481DE"/><path d="M19.078 4.219a.704.704 0 100 1.407.704.704 0 000-1.407zM12.047 7.031a4.928 4.928 0 00-4.922 4.922 4.928 4.928 0 004.922 4.922 4.928 4.928 0 004.922-4.922 4.928 4.928 0 00-4.922-4.922z" fill="#A481DE"/></svg><svg fill="none" viewBox="0 0 90 45" id="logo" xmlns="http://www.w3.org/2000/svg"><g clip-path="url(#akclip0)"><path d="M2.33 36.236v3.71c0 .14-.125.265-.265.265h-1.8A.26.26 0 010 39.946v-7.557c0-.16.106-.265.265-.265h1.73a.26.26 0 01.265.265v.477h.054c.477-.565 1.164-.9 1.976-.9.743 0 1.449.213 1.977.672.125.106.16.247.088.371l-.653 1.395c-.071.141-.247.16-.406.072-.44-.265-.865-.46-1.43-.46-1.2-.005-1.536 1.109-1.536 2.22zM13.56 37.985c.195-.106.335-.071.407.072l.618 1.146c.053.124 0 .265-.124.353-.653.459-1.855.83-3.038.83-1.359 0-2.454-.424-3.213-1.183-.76-.74-1.184-1.836-1.184-3.125 0-1.218.46-2.242 1.184-2.985.69-.706 1.695-1.13 2.966-1.13 1.465 0 2.489.546 3.125 1.411.584.794.76 1.996.743 3.232 0 .16-.106.265-.265.265h-5.28c.088.46.247.794.53 1.077.353.372.918.584 1.571.584.778 0 1.377-.212 1.96-.547zm-.776-2.65c-.019-.424-.141-.759-.388-1.059-.265-.281-.69-.477-1.202-.477-.53 0-1.005.177-1.27.477-.248.282-.388.653-.441 1.059h3.3zM19.106 32.934c.69-.706 1.554-.971 2.42-.971.9 0 1.748.228 2.366.793.565.512.936 1.343.936 2.542v4.644a.26.26 0 01-.265.265h-1.817a.273.273 0 01-.266-.265v-4.044c0-.583-.071-1.165-.406-1.536-.212-.247-.565-.406-1.059-.406-1.377 0-1.889 1.29-1.889 2.454v3.532c0 .14-.124.265-.265.265H17.06a.26.26 0 01-.266-.265v-7.557c0-.16.107-.265.266-.265h1.73a.26.26 0 01.265.265v.547h.05v.002zM29.576 37.03c0 .388.053.69.177.918.14.282.406.425.812.425.335 0 .724-.106 1.149-.441.159-.125.318-.106.37.035l.62 1.305c.07.125.017.266-.107.353-.653.46-1.608.76-2.648.76-1.006 0-1.66-.3-2.067-.778-.477-.6-.636-1.43-.636-2.26v-3.391h-.884c-.14 0-.265-.125-.265-.282v-1.29a.26.26 0 01.265-.264h.884v-1.59a.26.26 0 01.265-.265h1.801c.16 0 .266.106.266.265v1.59h2.225c.16 0 .266.106.266.265v1.29c0 .158-.107.28-.266.28h-2.225v3.075h-.002zM38.774 42.045c.3-.318.46-.777.46-1.359v-.794c-.566.319-1.166.46-1.961.46-1.112 0-2.014-.388-2.667-1.025-.777-.758-1.201-1.907-1.201-3.178 0-1.13.371-2.277 1.112-3.072.636-.672 1.536-1.112 2.737-1.112.884 0 1.555.353 1.996.652h.053v-.228a.26.26 0 01.265-.265h1.73a.26.26 0 01.265.265v8c0 1.376-.387 2.472-1.201 3.16-.725.6-1.714.864-2.948.864-1.218 0-2.402-.352-3.16-.883-.125-.106-.178-.23-.125-.353l.69-1.342c.071-.125.23-.194.406-.072.583.388 1.305.706 2.225.706.584 0 1.024-.14 1.324-.424zm.46-4.131v-3.338c-.319-.23-.884-.618-1.625-.618-.565 0-.989.194-1.27.512-.372.44-.547 1.042-.547 1.714 0 .74.177 1.342.53 1.73.3.318.69.512 1.236.512.688 0 1.235-.212 1.675-.512zM49.9 37.985c.193-.106.334-.071.405.072l.618 1.146c.053.124 0 .265-.124.353-.653.459-1.855.83-3.038.83-1.358 0-2.454-.424-3.213-1.183-.759-.74-1.183-1.836-1.183-3.125 0-1.218.459-2.242 1.183-2.985.69-.706 1.695-1.13 2.966-1.13 1.465 0 2.49.546 3.126 1.411.583.794.759 1.996.742 3.232 0 .16-.106.265-.265.265h-5.28c.088.46.247.794.53 1.077.354.372.919.584 1.572.584.777 0 1.379-.212 1.96-.547zm-.778-2.65c-.018-.424-.14-.759-.388-1.059-.265-.281-.69-.477-1.201-.477-.53 0-1.006.177-1.271.477-.247.282-.388.653-.44 1.059h3.3zM55.444 32.934c.69-.706 1.555-.971 2.42-.971.9 0 1.748.228 2.366.793.566.512.937 1.343.937 2.542v4.644a.26.26 0 01-.265.265h-1.818a.273.273 0 01-.265-.265v-4.044c0-.583-.072-1.165-.406-1.536-.212-.247-.566-.406-1.06-.406-1.376 0-1.888 1.29-1.888 2.454v3.532c0 .14-.125.265-.266.265h-1.801a.26.26 0 01-.265-.265v-7.557c0-.16.106-.265.265-.265h1.73a.26.26 0 01.265.265v.547h.051v.002z" fill="#64ECEC"/><path d="M64.378 40.386a1.387 1.387 0 01-1.396-1.395 1.39 1.39 0 011.396-1.412 1.39 1.39 0 011.395 1.412c0 .777-.618 1.395-1.395 1.395z" fill="url(#akpaint0_linear)"/><path d="M70.047 32.687c.53-.46 1.218-.706 1.996-.706.99 0 1.907.334 2.525 1.165.618-.76 1.537-1.165 2.614-1.165.865 0 1.677.228 2.277.794.546.493.883 1.305.883 2.472v4.697c0 .14-.124.265-.265.265h-1.802a.26.26 0 01-.265-.265v-4.115c0-.547-.088-1.096-.353-1.449-.194-.247-.512-.44-1.024-.44-.53 0-.9.265-1.112.636-.247.424-.318 1.024-.318 1.712v3.656c0 .14-.125.265-.265.265h-1.802a.26.26 0 01-.265-.265v-4.115c0-.547-.088-1.096-.353-1.449-.194-.247-.512-.44-1.024-.44-.53 0-.883.265-1.112.636-.228.406-.3.99-.318 1.659v3.709c0 .14-.125.265-.265.265h-1.802a.26.26 0 01-.265-.265v-7.557c0-.16.106-.265.265-.265h1.73a.26.26 0 01.265.265v.3h.055zM88.517 37.985c.194-.106.335-.071.406.072l.618 1.146c.053.124 0 .265-.124.353-.653.459-1.855.83-3.038.83-1.359 0-2.454-.424-3.213-1.183-.76-.74-1.184-1.836-1.184-3.125 0-1.218.46-2.242 1.184-2.985.69-.706 1.695-1.13 2.966-1.13 1.465 0 2.489.546 3.125 1.411.584.794.76 1.996.743 3.232 0 .16-.106.265-.265.265h-5.28c.088.46.247.794.53 1.077.353.372.918.584 1.571.584.778 0 1.377-.212 1.96-.547zm-.777-2.65c-.019-.424-.141-.759-.388-1.059-.265-.281-.69-.477-1.202-.477-.53 0-1.005.177-1.27.477-.248.282-.388.653-.441 1.059h3.3z" fill="#64ECEC"/><path d="M34.431 1.397V.818A.818.818 0 0033.613 0H29.3a.818.818 0 00-.818.818v9.39c.003-3.953 2.457-7.354 5.95-8.81z" fill="url(#akpaint1_linear)"/><path d="M28.485 10.372v10.51c0 .451.365.819.818.819h4.313c.45 0 .818-.365.818-.818V1.397c-3.495 1.484-5.95 4.95-5.95 8.975z" fill="url(#akpaint2_linear)"/><path d="M34.432 1.397c-3.493 1.457-5.947 4.858-5.947 8.812v.163c0-4.025 2.454-7.491 5.947-8.975z" fill="url(#akpaint3_linear)"/><path d="M34.432 1.397c-3.493 1.457-5.947 4.858-5.947 8.812v.163c0-4.025 2.454-7.491 5.947-8.975z" fill="url(#akpaint4_linear)"/><path d="M34.431 1.398v8.974a3.802 3.802 0 014.282-3.768V.639a9.705 9.705 0 00-4.282.759z" fill="url(#akpaint5_linear)"/><path d="M45.001 3.368A9.726 9.726 0 0040.348.857v6.365a3.789 3.789 0 011.679 3.064A9.694 9.694 0 0145 3.368z" fill="url(#akpaint6_linear)"/><path d="M61.438 9.124a5.99 5.99 0 00-.028-.2c-.002-.019-.004-.04-.008-.057-.01-.074-.023-.145-.035-.217-.008-.053-.018-.102-.028-.153-.02-.1-.047-.2-.066-.3-.004-.026-.012-.055-.018-.083l-.043-.174a9.322 9.322 0 00-.243-.797c-.018-.058-.04-.113-.061-.168a9.325 9.325 0 00-.508-1.134 7.203 7.203 0 00-.357-.62c-.061-.096-.122-.192-.186-.286-.002-.002-.002-.004-.002-.006a8.857 8.857 0 00-.185-.263c-.009-.01-.015-.023-.025-.033a9.813 9.813 0 00-.424-.538c-.07-.08-.139-.162-.208-.239-.014-.014-.025-.029-.041-.043-.074-.08-.147-.159-.222-.237a9.374 9.374 0 00-.504-.481l-.006-.006c-.078-.07-.156-.135-.233-.2l-.053-.043a9.686 9.686 0 00-1.428-.975 9.19 9.19 0 00-.614-.316c-.012-.006-.025-.01-.035-.017a9.985 9.985 0 00-.973-.39 9.7 9.7 0 00-3.13-.515 9.689 9.689 0 00-5 1.385c-.063.039-.129.077-.19.118-.063.04-.126.08-.19.123a5.823 5.823 0 00-.367.257 2.89 2.89 0 00-.177.134 7.23 7.23 0 00-.375.304c-.047.041-.096.082-.141.123-.053.047-.106.096-.16.142a12.96 12.96 0 00-.167.16l.002.002a9.715 9.715 0 012.973 6.914 3.803 3.803 0 013.764-3.711c2.107-.019 3.831 1.777 3.831 3.884v10.427c0 .45.365.818.818.818h4.313c.451 0 .818-.365.818-.818V10.372c-.008-.422-.035-.84-.088-1.248z" fill="url(#akpaint7_linear)"/><path d="M45.003 3.37c-.002-.002-.002-.002 0 0H45a9.85 9.85 0 00-1.489 1.835 9.663 9.663 0 00-1.481 5.165v2.163h-.002v8.348c0 .45.365.818.818.818h4.313c.45 0 .818-.365.818-.818V10.372c0-.028 0-.057.002-.086v-.002.002a9.73 9.73 0 00-2.975-6.916z" fill="url(#akpaint8_linear)"/><path d="M45.002 3.368z" fill="url(#akpaint9_linear)"/><path d="M45.002 3.368z" fill="url(#akpaint10_linear)"/><path d="M45.001 3.368a9.721 9.721 0 012.974 6.916v-.002a9.717 9.717 0 00-2.974-6.914z" fill="url(#akpaint11_linear)"/><path d="M45.001 3.368a9.721 9.721 0 012.974 6.916v-.002a9.717 9.717 0 00-2.974-6.914z" fill="url(#akpaint12_linear)"/></g><defs><linearGradient id="akpaint0_linear" x1="65.788" y1="39.274" x2="62.479" y2="39.318" gradientUnits="userSpaceOnUse"><stop stop-color="#59E2E2"/><stop offset="1" stop-color="#863EFF" stop-opacity="0"/></linearGradient><linearGradient id="akpaint1_linear" x1="34.462" y1="6.165" x2="27.409" y2="6.22" gradientUnits="userSpaceOnUse"><stop stop-color="#59E2E2"/><stop offset="1" stop-color="#863EFF" stop-opacity="0"/></linearGradient><linearGradient id="akpaint2_linear" x1="27.542" y1="13.363" x2="40.68" y2="5.721" gradientUnits="userSpaceOnUse"><stop stop-color="#59E2E2"/><stop offset="1" stop-color="#863EFF" stop-opacity="0"/></linearGradient><linearGradient id="akpaint3_linear" x1="31.42" y1="10.329" x2="31.52" y2="-1.764" gradientUnits="userSpaceOnUse"><stop offset="0" stop-color="#59E2E2"/><stop offset="1" stop-color="#438DBA"/></linearGradient><linearGradient id="akpaint4_linear" x1="31.347" y1="19.795" x2="31.542" y2="-4.923" gradientUnits="userSpaceOnUse"><stop offset="0" stop-color="#59E2E2"/><stop offset="1" stop-color="#438DBA"/></linearGradient><linearGradient id="akpaint5_linear" x1="25.502" y1="9.997" x2="43.709" y2="6.046" gradientUnits="userSpaceOnUse"><stop stop-color="#59E2E2"/><stop offset=".792" stop-color="#863EFF" stop-opacity="0"/></linearGradient><linearGradient id="akpaint6_linear" x1="40.905" y1="1.326" x2="41.384" y2="14.592" gradientUnits="userSpaceOnUse"><stop stop-color="#59E2E2" stop-opacity=".66"/><stop offset="1" stop-color="#863EFF" stop-opacity="0"/></linearGradient><linearGradient id="akpaint7_linear" x1="61.612" y1="13.363" x2="42.027" y2="13.567" gradientUnits="userSpaceOnUse"><stop stop-color="#59E2E2"/><stop offset="1" stop-color="#863EFF" stop-opacity="0"/></linearGradient><linearGradient id="akpaint8_linear" x1="48.009" y1="14.438" x2="40.952" y2="14.469" gradientUnits="userSpaceOnUse"><stop stop-color="#59E2E2"/><stop offset="1" stop-color="#863EFF" stop-opacity="0"/></linearGradient><linearGradient id="akpaint9_linear" x1="50.774" y1="4.153" x2="41.159" y2="4.351" gradientUnits="userSpaceOnUse"><stop offset="0" stop-color="#59E2E2"/><stop offset="1" stop-color="#438DBA"/></linearGradient><linearGradient id="akpaint10_linear" x1="42.027" y1="4.287" x2="47.976" y2="4.287" gradientUnits="userSpaceOnUse"><stop offset="0" stop-color="#59E2E2"/><stop offset="1" stop-color="#438DBA"/></linearGradient><linearGradient id="akpaint11_linear" x1="45.001" y1="6.827" x2="61.518" y2="6.827" gradientUnits="userSpaceOnUse"><stop offset="0" stop-color="#59E2E2"/><stop offset="1" stop-color="#438DBA"/></linearGradient><linearGradient id="akpaint12_linear" x1="42.028" y1="6.827" x2="47.975" y2="6.827" gradientUnits="userSpaceOnUse"><stop offset="0" stop-color="#59E2E2"/><stop offset="1" stop-color="#438DBA"/></linearGradient><clipPath id="akclip0"><path fill="#fff" d="M0 0h90v44.411H0z"/></clipPath></defs></svg><svg fill="none" viewBox="0 0 18 24" id="mark-icon-green" xmlns="http://www.w3.org/2000/svg"><path d="M17.333 0v23.376a.625.625 0 01-.988.507l-7.352-5.27-7.353 5.27a.624.624 0 01-.988-.507V0h16.681z" fill="#12D3CE"/></svg><svg fill="none" viewBox="0 0 18 24" id="mark-icon-grey" xmlns="http://www.w3.org/2000/svg"><path d="M17.333 0v23.376a.625.625 0 01-.988.507l-7.352-5.27-7.353 5.27a.624.624 0 01-.988-.507V0h16.681z" fill="#8D9396"/></svg><svg fill="none" viewBox="0 0 18 24" id="mark-icon-purp" xmlns="http://www.w3.org/2000/svg"><path d="M17.334 0v23.376a.625.625 0 01-.988.507l-7.352-5.27-7.353 5.27a.624.624 0 01-.988-.507V0h16.681z" fill="#A481DE"/></svg><svg fill="none" viewBox="0 0 24 24" id="message-icon" xmlns="http://www.w3.org/2000/svg"><path d="M23.667 11.614c0 2.41-1.063 4.608-2.812 6.304v4.166l-4.166-1.594a13.612 13.612 0 01-4.688.822C5.557 21.312.334 16.97.334 11.614c0-5.355 5.223-9.698 11.667-9.698 6.443 0 11.666 4.342 11.666 9.698z" fill="#12D3CE"/><path d="M20.855 22.418a.337.337 0 01-.12-.023l-4.05-1.549c-1.49.531-3.066.8-4.685.8-6.617 0-12-4.5-12-10.032C0 6.084 5.383 1.583 12 1.583s12 4.5 12 10.03c0 2.355-.998 4.638-2.812 6.445v4.026a.333.333 0 01-.333.334zm-4.167-2.261c.04 0 .08.007.12.022l3.713 1.42v-3.681c0-.091.037-.177.101-.24 1.748-1.694 2.71-3.848 2.71-6.064C23.332 6.45 18.248 2.25 12 2.25 5.75 2.25.667 6.45.667 11.614.667 16.78 5.75 20.98 12 20.98c1.584 0 3.123-.27 4.573-.802a.325.325 0 01.115-.02z" fill="#12D3CE"/></svg><svg fill="none" viewBox="0 0 24 24" id="more-menu-icon" xmlns="http://www.w3.org/2000/svg"><path d="M16.336 11.063H.664c-.367 0-.664.42-.664.937 0 .518.297.938.664.938h15.672c.367 0 .664-.42.664-.938s-.297-.938-.664-.938zM23.063 3.563H.938a.937.937 0 100 1.874h22.125a.937.937 0 100-1.875zM23.063 18.563H.938a.937.937 0 100 1.875h22.125a.937.937 0 100-1.875z" fill="#A481DE"/></svg><svg fill="none" viewBox="0 0 24 24" id="phone-svg" xmlns="http://www.w3.org/2000/svg"><path d="M22.105 15.802c-1.48 0-2.93-.231-4.305-.684-.67-.232-1.432-.054-1.873.396l-2.724 2.058c-3.127-1.669-5.128-3.668-6.773-6.772l2.002-2.66A1.912 1.912 0 008.9 6.207a13.715 13.715 0 01-.69-4.312C8.21.85 7.36 0 6.317 0H1.895C.85 0 0 .85 0 1.895 0 14.083 9.917 24 22.105 24 23.15 24 24 23.15 24 22.105v-4.408c0-1.045-.85-1.895-1.895-1.895z" fill="#A481DE"/></svg><svg fill="none" viewBox="0 0 68 68" id="price-medcenter-icon" xmlns="http://www.w3.org/2000/svg"><g clip-path="url(#arclip0)" fill="#12D3CE"><path d="M34 14.193c-2.292 0-4.453 2.239-6.08 3.865l-20.2 20.21v23.167a4.597 4.597 0 004.6 4.593h43.37a4.596 4.596 0 004.594-4.593V38.268L40.08 18.058c-1.622-1.626-3.788-3.865-6.08-3.865zM48.02 48.378h-9.3v9.299H29.28v-9.3h-9.303v-9.434h9.303V29.64h9.44v9.303h9.299v9.435z"/><path d="M66.907 28.877L43.997 5.982c-5.345-5.346-14.649-5.346-20.005 0L1.097 28.877a3.737 3.737 0 000 5.288c1.408 1.408 3.87 1.408 5.278 0l22.9-22.904c2.525-2.525 6.924-2.525 9.445 0l22.9 22.904a3.71 3.71 0 002.636 1.088c.995 0 1.937-.384 2.651-1.088a3.745 3.745 0 000-5.288z"/></g><defs><clipPath id="arclip0"><path fill="#fff" d="M0 0h68v68H0z"/></clipPath></defs></svg><svg fill="none" viewBox="0 0 68 68" id="price-pacient-icon" xmlns="http://www.w3.org/2000/svg"><path d="M35.18 17.77a39.6 39.6 0 01-4.57.86l-.083.012c6.03 4.273 13.626 4.836 16.194 4.9v-.479c-6.63-.68-10.355-4.03-11.541-5.293z" fill="#12D3CE"/><path d="M22.182 22.988l.226-4.956a.93.93 0 01.976-.886 43.531 43.531 0 007.02-.363c3.547-.467 8.517-1.591 12.045-4.297a.93.93 0 111.132 1.475c-1.727 1.324-3.845 2.397-6.332 3.213 1.483 1.307 4.603 3.465 9.472 4.017v-3.69a12.719 12.719 0 00-25.437 0v6.348a.926.926 0 00.764-.423.885.885 0 00.134-.438zM54.142 57.294a5.754 5.754 0 00-.198-1.554c-.544-1.98-2.08-3.554-4.11-4.212l-9.667-3.134a13.812 13.812 0 01-12.334 0l-9.666 3.134c-2.03.658-3.567 2.233-4.11 4.212a5.76 5.76 0 00-.198 1.555v5.922h40.283v-5.922zM28.86 46.828a11.957 11.957 0 0010.28 0v-3.48a13.625 13.625 0 01-10.28 0v3.48z" fill="#12D3CE"/><path d="M20.954 29.69a.93.93 0 01.756.756l.683 2.351a.934.934 0 01.021.088 11.788 11.788 0 0023.172 0 .967.967 0 01.02-.088l.684-2.35a.93.93 0 01.756-.758 2.503 2.503 0 001.995-3.06 1.627 1.627 0 00-1.293-1.232c-.02.002-.04.005-.061.006-.124.005-3.069.107-7.023-.664-3.58-.698-8.67-2.275-12.815-5.83-1.554.11-2.823.125-3.625.117l-.184 4.046a2.751 2.751 0 01-3.943 2.364 1.612 1.612 0 00-1.137 1.193 2.505 2.505 0 001.994 3.06z" fill="#12D3CE"/></svg><svg fill="none" viewBox="0 0 30 30" id="save-icon" xmlns="http://www.w3.org/2000/svg"><path d="M27.811 4.352a7.602 7.602 0 00-5.78-2.604c-3.16 0-5.162 1.888-6.284 3.472-.291.41-.54.823-.747 1.21-.208-.387-.456-.8-.747-1.21-1.122-1.584-3.123-3.472-6.284-3.472-2.248 0-4.3.925-5.78 2.604C.777 5.953 0 8.098 0 10.392c0 2.496.975 4.818 3.067 7.306 1.87 2.224 4.56 4.517 7.676 7.172 1.161.99 2.362 2.012 3.64 3.13l.038.034a.877.877 0 001.158 0l.038-.034c1.278-1.118 2.479-2.14 3.64-3.13 3.115-2.655 5.806-4.948 7.676-7.172C29.025 15.21 30 12.888 30 10.392c0-2.294-.777-4.439-2.189-6.04zm-9.694 19.18c-1.001.853-2.031 1.73-3.117 2.674a407.787 407.787 0 00-3.117-2.674c-6.097-5.196-10.125-8.628-10.125-13.14 0-1.866.621-3.598 1.75-4.878a5.867 5.867 0 014.46-2.008c2.41 0 3.969 1.485 4.85 2.73a10.42 10.42 0 011.346 2.675.879.879 0 001.672 0 10.42 10.42 0 011.345-2.675c.883-1.245 2.44-2.73 4.85-2.73 1.736 0 3.32.713 4.461 2.008 1.129 1.28 1.75 3.012 1.75 4.878 0 4.512-4.028 7.944-10.125 13.14z" fill="#A481DE"/></svg><svg fill="none" viewBox="0 0 18 18" id="search-input-btn-icon" xmlns="http://www.w3.org/2000/svg"><g clip-path="url(#auclip0)"><path d="M17.78 16.72l-5.119-5.12a7.09 7.09 0 001.589-4.475C14.25 3.196 11.053 0 7.125 0 3.196 0 0 3.196 0 7.125c0 3.928 3.196 7.125 7.125 7.125A7.09 7.09 0 0011.6 12.66l5.119 5.12a.748.748 0 001.06 0 .75.75 0 000-1.061zM7.125 12.75A5.63 5.63 0 011.5 7.125 5.63 5.63 0 017.125 1.5a5.63 5.63 0 015.625 5.625 5.63 5.63 0 01-5.625 5.625z" fill="#A481DE"/></g><defs><clipPath id="auclip0"><path fill="#fff" d="M0 0h18v18H0z"/></clipPath></defs></svg><svg fill="none" viewBox="0 0 18 18" id="search-sort-btn-icon" xmlns="http://www.w3.org/2000/svg"><path d="M8.835 4.383L6.866 2.415a.562.562 0 00-.795 0L4.102 4.383a.562.562 0 10.796.796L5.906 4.17v11.017a.563.563 0 001.125 0V4.17L8.04 5.18a.56.56 0 00.795 0 .562.562 0 000-.796zM13.898 12.821a.562.562 0 00-.796 0l-1.008 1.009V2.812a.563.563 0 00-1.125 0V13.83L9.96 12.82a.562.562 0 10-.795.795l1.969 1.97a.56.56 0 00.795 0l1.969-1.97a.562.562 0 000-.795z" fill="#A481DE"/></svg><svg fill="none" viewBox="0 0 24 24" id="star-icon" xmlns="http://www.w3.org/2000/svg"><path fill-rule="evenodd" clip-rule="evenodd" d="M12 17.27L18.18 21l-1.64-7.03L22 9.24l-7.19-.61L12 2 9.19 8.63 2 9.24l5.46 4.73L5.82 21 12 17.27z" fill="#A2EEEC"/></svg><svg fill="none" viewBox="0 0 24 24" id="statistic-icon" xmlns="http://www.w3.org/2000/svg"><g clip-path="url(#axclip0)" fill="#12D3CE"><path d="M5.51 11h-5a.5.5 0 00-.5.5v12a.5.5 0 00.5.5h5a.5.5 0 00.5-.5v-12a.5.5 0 00-.5-.5zM14.49 0h-5a.5.5 0 00-.5.5v23a.5.5 0 00.5.5h5a.5.5 0 00.5-.5V.5a.5.5 0 00-.5-.5zM23.49 5h-5a.5.5 0 00-.5.5v18a.5.5 0 00.5.5h5a.5.5 0 00.5-.5v-18a.5.5 0 00-.5-.5z"/></g><defs><clipPath id="axclip0"><path fill="#fff" d="M0 0h24v24H0z"/></clipPath></defs></svg><svg fill="none" viewBox="0 0 24 24" id="telegram-icon" xmlns="http://www.w3.org/2000/svg"><g clip-path="url(#ayclip0)"><path d="M9.417 15.18l-.397 5.585c.568 0 .814-.244 1.11-.537l2.662-2.545 5.518 4.04c1.012.565 1.725.268 1.998-.93L23.93 3.82l.001-.001c.321-1.496-.54-2.081-1.527-1.714l-21.29 8.15c-1.453.565-1.43 1.375-.247 1.742L6.31 13.69 18.953 5.78c.595-.394 1.136-.176.691.218L9.417 15.18z" fill="#A481DE"/></g><defs><clipPath id="ayclip0"><path fill="#fff" d="M0 0h24v24H0z"/></clipPath></defs></svg><svg fill="none" viewBox="0 0 52 52" id="time-point-icon" xmlns="http://www.w3.org/2000/svg"><g clip-path="url(#azclip0)"><path d="M28.83 0h-7.446a1.786 1.786 0 000 3.57h7.446a1.786 1.786 0 000-3.57zM48.707 11.754l-4.861-4.861c-.677-.677-1.785-.677-2.523 0-.677.677-.677 1.784 0 2.523l4.8 4.8c.369.369.8.492 1.23.492.431 0 .923-.184 1.231-.492.8-.677.8-1.785.123-2.462z" fill="#A481DE"/><path d="M25.076 7.446C12.77 7.446 2.8 17.416 2.8 29.723 2.8 42.031 12.77 52 25.076 52c12.308 0 22.277-9.969 22.277-22.277 0-12.307-9.969-22.277-22.277-22.277zm9.231 24.677h-9.23c-.985 0-1.785-.8-1.785-1.784v-11.57c0-.984.8-1.784 1.784-1.784.985 0 1.785.8 1.785 1.784v9.847h7.446c.985 0 1.785.8 1.785 1.784 0 .923-.8 1.723-1.785 1.723z" fill="#A2EEEC"/></g><defs><clipPath id="azclip0"><path fill="#fff" d="M0 0h52v52H0z"/></clipPath></defs></svg><svg fill="none" viewBox="0 0 52 52" id="year-point-icon" xmlns="http://www.w3.org/2000/svg"><g clip-path="url(#baclip0)"><path d="M29.233 39.942c-.968 0-1.929-.139-2.856-.411a1.352 1.352 0 00-.763 0 10.166 10.166 0 01-10.278-2.806v13.752a1.524 1.524 0 002.268 1.329L26 47.1l8.395 4.706a1.522 1.522 0 002.268-1.33V36.723a10.167 10.167 0 01-7.43 3.22z" fill="#A481DE"/><path d="M26 26.479a7.98 7.98 0 100-15.961 7.98 7.98 0 000 15.96z" fill="#A2EEEC"/><path d="M43.619 14.977a7.234 7.234 0 00-3.24-7.1 4.292 4.292 0 01-1.586-1.83 7.234 7.234 0 00-6.563-4.22 4.29 4.29 0 01-2.324-.684 7.234 7.234 0 00-7.804-.001 4.29 4.29 0 01-2.323.681h-.002a7.234 7.234 0 00-6.564 4.218 4.291 4.291 0 01-1.587 1.83 7.234 7.234 0 00-3.243 7.099 4.29 4.29 0 01-.345 2.397 7.235 7.235 0 001.109 7.725c.54.624.888 1.386 1.005 2.203a7.234 7.234 0 005.11 5.9 4.29 4.29 0 012.037 1.31 7.234 7.234 0 007.486 2.2 4.291 4.291 0 012.422 0 7.236 7.236 0 007.488-2.197 4.29 4.29 0 012.038-1.31 7.234 7.234 0 005.111-5.896 4.292 4.292 0 011.007-2.203 7.234 7.234 0 001.112-7.724 4.293 4.293 0 01-.344-2.398zm-17.62 14.549c-6.08 0-11.026-4.947-11.026-11.028 0-6.08 4.946-11.028 11.027-11.028 6.08 0 11.027 4.947 11.027 11.028 0 6.08-4.947 11.028-11.027 11.028z" fill="#A2EEEC"/></g><defs><clipPath id="baclip0"><path fill="#fff" d="M0 0h52v52H0z"/></clipPath></defs></svg></svg>