<?xml version="1.0" encoding="utf-8"?><svg viewBox="0 0 24 24" xmlns="http://www.w3.org/2000/svg" xmlns:xlink="http://www.w3.org/1999/xlink"><style>:root>svg{display:none}:root>svg:target{display:block}</style><svg fill="none" viewBox="0 0 24 24" id="facebook-icon" xmlns="http://www.w3.org/2000/svg"><path d="M13.858 24V13.053h3.673l.551-4.267h-4.224V6.062c0-1.235.342-2.077 2.115-2.077l2.258-.001V.167c-.39-.05-1.73-.167-3.29-.167-3.258 0-5.488 1.988-5.488 5.64v3.146H5.769v4.267h3.684V24h4.405z" fill="#A481DE"/></svg><svg fill="none" viewBox="0 0 24 24" id="insta-icon" xmlns="http://www.w3.org/2000/svg"><path d="M20.484 0H3.516A3.52 3.52 0 000 3.516v16.968A3.52 3.52 0 003.516 24h16.968A3.52 3.52 0 0024 20.484V3.516A3.52 3.52 0 0020.484 0zm-8.437 18.281a6.335 6.335 0 01-6.328-6.328 6.335 6.335 0 016.328-6.328 6.335 6.335 0 016.328 6.328 6.335 6.335 0 01-6.328 6.328zm7.031-11.25a2.112 2.112 0 01-2.11-2.11c0-1.162.947-2.109 2.11-2.109 1.163 0 2.11.947 2.11 2.11 0 1.163-.947 2.11-2.11 2.11z" fill="#A481DE"/><path d="M19.078 4.219a.704.704 0 100 1.407.704.704 0 000-1.407zM12.047 7.031a4.928 4.928 0 00-4.922 4.922 4.928 4.928 0 004.922 4.922 4.928 4.928 0 004.922-4.922 4.928 4.928 0 00-4.922-4.922z" fill="#A481DE"/></svg><svg fill="none" viewBox="0 0 24 24" id="phone-svg" xmlns="http://www.w3.org/2000/svg"><path d="M22.105 15.802c-1.48 0-2.93-.231-4.305-.684-.67-.232-1.432-.054-1.873.396l-2.724 2.058c-3.127-1.669-5.128-3.668-6.773-6.772l2.002-2.66A1.912 1.912 0 008.9 6.207a13.715 13.715 0 01-.69-4.312C8.21.85 7.36 0 6.317 0H1.895C.85 0 0 .85 0 1.895 0 14.083 9.917 24 22.105 24 23.15 24 24 23.15 24 22.105v-4.408c0-1.045-.85-1.895-1.895-1.895z" fill="#A481DE"/></svg><svg fill="none" viewBox="0 0 24 24" id="telegram-icon" xmlns="http://www.w3.org/2000/svg"><g clip-path="url(#dclip0)"><path d="M9.417 15.18l-.397 5.585c.568 0 .814-.244 1.11-.537l2.662-2.545 5.518 4.04c1.012.565 1.725.268 1.998-.93L23.93 3.82l.001-.001c.321-1.496-.54-2.081-1.527-1.714l-21.29 8.15c-1.453.565-1.43 1.375-.247 1.742L6.31 13.69 18.953 5.78c.595-.394 1.136-.176.691.218L9.417 15.18z" fill="#A481DE"/></g><defs><clipPath id="dclip0"><path fill="#fff" d="M0 0h24v24H0z"/></clipPath></defs></svg></svg>